<svg viewBox="0 0 14 14" fill="none" xmlns="http://www.w3.org/2000/svg">
<path fill-rule="evenodd" clip-rule="evenodd" d="M14 7C14 10.866 10.866 14 7 14C3.13401 14 0 10.866 0 7C0 3.13401 3.13401 0 7 0C10.866 0 14 3.13401 14 7ZM6.77476 12.4955L7.283 12.0491L7.02891 10.9057L5.40412 10.0462L3.98068 9.34818L2.7573 9.95987L2.75202 10.4938C3.71628 11.6648 5.15537 12.4302 6.77476 12.4955ZM9.50419 11.8981L8.71893 11.5961L8.45537 10.4101L9.4261 9.40915L10.4807 8.38638H12.3238C11.9259 9.91866 10.8839 11.1913 9.50419 11.8981ZM11.995 6.88638L12.4105 6.00667C12.1853 4.77213 11.548 3.68143 10.6463 2.88236L9.8628 2.95136L9.36091 3.95514L10.0631 5.38717L10.8562 6.88638L11.995 6.88638ZM2.02648 8.64823L3.27579 8.02357L3.55542 6.41789L3.75509 5.01865L2.85528 4.40966L1.99414 4.71831C1.67682 5.41337 1.5 6.18604 1.5 7C1.5 7.51005 1.56943 8.00389 1.69935 8.47257L2.02648 8.64823ZM4.6257 3.79663L3.60648 3.10682L3.67463 2.61877C4.59817 1.91672 5.75042 1.5 7 1.5C7.40339 1.5 7.79664 1.54343 8.17533 1.62586L8.55377 2.21532L8.03119 3.26047L6.43484 3.53847L4.6257 3.79663ZM4.78956 8.07418L5.03713 6.65257L5.24098 5.22403L6.66952 5.02018L8.09113 4.77261L8.72645 6.06824L9.40121 7.34377L8.36531 8.34836L7.36072 9.38425L6.08519 8.7095L4.78956 8.07418Z" fill="#141414" fill-opacity="0.48"/>
</svg>
