<svg viewBox="0 0 16 20" fill="none" xmlns="http://www.w3.org/2000/svg">
<path fill-rule="evenodd" clip-rule="evenodd" d="M9.66664 2.50001V2.74158C12.0762 3.4587 13.8333 5.69083 13.8333 8.33334V11.6667C13.8333 12.4041 14.6491 13.3048 15.5587 14.0798C16.2021 14.6279 15.8366 15.8333 14.9914 15.8333H1.00857C0.163383 15.8333 -0.202125 14.6279 0.441221 14.0798C1.35085 13.3048 2.16664 12.4041 2.16664 11.6667V8.33334C2.16664 5.69083 3.92373 3.4587 6.3333 2.74158V2.50001C6.3333 1.57954 7.0795 0.833344 7.99997 0.833344C8.92045 0.833344 9.66664 1.57954 9.66664 2.50001ZM7.99997 3.98446L9.19122 4.339C10.9135 4.85158 12.1666 6.4483 12.1666 8.33334V11.6667C12.1666 12.5988 12.6517 13.3771 13.0324 13.8734C13.1084 13.9725 13.1881 14.0704 13.2707 14.1667H2.72927C2.81181 14.0704 2.89153 13.9725 2.96759 13.8734C3.3482 13.3771 3.8333 12.5988 3.8333 11.6667V8.33334C3.8333 6.44829 5.08642 4.85158 6.80872 4.339L7.99997 3.98446Z" fill="#141414" fill-opacity="0.72"/>
<path d="M7.99997 19.1667C9.38068 19.1667 10.5 18.0474 10.5 16.6667H5.49997C5.49997 18.0474 6.61926 19.1667 7.99997 19.1667Z" fill="#141414" fill-opacity="0.72"/>
</svg>
