<svg viewBox="0 0 16 16" xmlns="http://www.w3.org/2000/svg">
<path fill-rule="evenodd" clip-rule="evenodd" d="M4.6665 4.66666H1.99984C1.26346 4.66666 0.666504 5.26362 0.666504 6V8.66666C0.666504 9.17292 0.948658 9.61328 1.36429 9.83907C1.55322 9.9417 1.76972 10 1.99984 10H13.9998C14.2427 10 14.4704 9.93507 14.6665 9.82162C15.065 9.59108 15.3332 9.16018 15.3332 8.66666V6C15.3332 5.26362 14.7362 4.66666 13.9998 4.66666H11.3332C11.3332 2.82571 9.84079 1.33333 7.99984 1.33333C6.15889 1.33333 4.6665 2.82571 4.6665 4.66666ZM5.99984 4.66666H9.99984C9.99984 3.56209 9.10441 2.66666 7.99984 2.66666C6.89527 2.66666 5.99984 3.56209 5.99984 4.66666Z" />
<path d="M1.33317 10.5529V14C1.33317 14.3682 1.63165 14.6667 1.99984 14.6667H13.9998C14.368 14.6667 14.6665 14.3682 14.6665 14V10.5529C14.458 10.6266 14.2336 10.6667 13.9998 10.6667H1.99984C1.76608 10.6667 1.54169 10.6266 1.33317 10.5529Z" />
</svg>
