<svg viewBox="0 0 16 16" fill="none" xmlns="http://www.w3.org/2000/svg">
<path d="M7.25 5.95162C6.9816 5.95162 6.72731 6.01204 6.5 6.12003V2.5H12V10H9.25V7.70162C9.25 6.73512 8.4665 5.95162 7.5 5.95162H7.25Z" fill="#F00E0E"/>
<path fill-rule="evenodd" clip-rule="evenodd" d="M5 1H13.5V11.5H9.25V15H3.25V13.2227L2.1607 10.271C1.84712 9.42134 1.97203 8.47173 2.49467 7.73204L3.64578 6.10284C3.98663 5.62042 4.53015 5.48853 5 5.61937V1ZM6.5 6.12003C6.72732 6.01204 6.9816 5.95162 7.25 5.95162H7.5C8.4665 5.95162 9.25 6.73512 9.25 7.70162V10H12V2.5H6.5V6.12003ZM4.41667 10.9355V7.61122L3.71973 8.59761C3.48217 8.93384 3.42539 9.36547 3.56793 9.7517L4.75 12.9547V13.5H7.75V7.70162C7.75 7.56355 7.63807 7.45162 7.5 7.45162H7.25C7.11193 7.45162 7 7.56355 7 7.70162V10.9355H4.41667Z" fill="#141414" fill-opacity="0.48"/>
</svg>
