<svg viewBox="0 0 158 159" fill="none" xmlns="http://www.w3.org/2000/svg">
<path d="M156.5 79.5C156.5 122.44 121.69 157.25 78.75 157.25C35.8099 157.25 1 122.44 1 79.5C1 36.5599 35.8099 1.75 78.75 1.75C121.69 1.75 156.5 36.5599 156.5 79.5ZM32.1 79.5C32.1 105.264 52.9859 126.15 78.75 126.15C104.514 126.15 125.4 105.264 125.4 79.5C125.4 53.7359 104.514 32.85 78.75 32.85C52.9859 32.85 32.1 53.7359 32.1 79.5Z" fill="#C7C7C7" stroke="white" stroke-width="2"/>
<path d="M77.9725 1.75C94.3917 1.75 110.389 6.94797 123.673 16.5989C136.956 26.2499 146.843 39.8584 151.917 55.4739C156.991 71.0895 156.991 87.9105 151.917 103.526C146.843 119.142 136.956 132.75 123.673 142.401L105.393 117.241C113.363 111.45 119.295 103.285 122.339 93.9156C125.384 84.5463 125.384 74.4537 122.339 65.0844C119.295 55.715 113.363 47.5499 105.393 41.7594C97.4226 35.9688 87.824 32.85 77.9725 32.85V1.75Z" fill="#2E8F00" stroke="white" stroke-width="2"/>
<path d="M123.673 142.401C110.389 152.052 94.3916 157.25 77.9725 157.25C61.5533 157.25 45.5555 152.052 32.2721 142.401L50.5523 117.241C58.5223 123.031 68.1209 126.15 77.9725 126.15C87.824 126.15 97.4226 123.031 105.393 117.241L123.673 142.401Z" fill="#78C253" stroke="white" stroke-width="2"/>
<path d="M62.5738 62.208C62.4458 61.616 62.2218 61.176 61.9018 60.888C61.5818 60.584 61.1258 60.432 60.5338 60.432C59.6218 60.432 58.9658 60.832 58.5658 61.632C58.1658 62.416 57.9578 63.664 57.9418 65.376C58.2938 64.816 58.7978 64.376 59.4538 64.056C60.1258 63.736 60.8618 63.576 61.6618 63.576C63.2298 63.576 64.4858 64.072 65.4298 65.064C66.3898 66.056 66.8698 67.44 66.8698 69.216C66.8698 70.384 66.6298 71.408 66.1498 72.288C65.6858 73.168 64.9978 73.856 64.0858 74.352C63.1898 74.848 62.1258 75.096 60.8938 75.096C58.4298 75.096 56.7178 74.328 55.7578 72.792C54.7978 71.24 54.3178 69.016 54.3178 66.12C54.3178 63.08 54.8218 60.824 55.8298 59.352C56.8538 57.864 58.4858 57.12 60.7258 57.12C61.9258 57.12 62.9338 57.36 63.7498 57.84C64.5818 58.304 65.2058 58.92 65.6218 59.688C66.0538 60.456 66.3098 61.296 66.3898 62.208H62.5738ZM60.6778 66.816C59.9898 66.816 59.4138 67.024 58.9498 67.44C58.5018 67.84 58.2778 68.416 58.2778 69.168C58.2778 69.936 58.4858 70.536 58.9018 70.968C59.3338 71.4 59.9418 71.616 60.7258 71.616C61.4298 71.616 61.9818 71.408 62.3818 70.992C62.7978 70.56 63.0058 69.976 63.0058 69.24C63.0058 68.488 62.8058 67.896 62.4058 67.464C62.0058 67.032 61.4298 66.816 60.6778 66.816ZM68.9511 66C68.9511 63.248 69.4791 61.08 70.5351 59.496C71.6071 57.912 73.3271 57.12 75.6951 57.12C78.0631 57.12 79.7751 57.912 80.8311 59.496C81.9031 61.08 82.4391 63.248 82.4391 66C82.4391 68.784 81.9031 70.968 80.8311 72.552C79.7751 74.136 78.0631 74.928 75.6951 74.928C73.3271 74.928 71.6071 74.136 70.5351 72.552C69.4791 70.968 68.9511 68.784 68.9511 66ZM78.4071 66C78.4071 64.384 78.2311 63.144 77.8791 62.28C77.5271 61.4 76.7991 60.96 75.6951 60.96C74.5911 60.96 73.8631 61.4 73.5111 62.28C73.1591 63.144 72.9831 64.384 72.9831 66C72.9831 67.088 73.0471 67.992 73.1751 68.712C73.3031 69.416 73.5591 69.992 73.9431 70.44C74.3431 70.872 74.9271 71.088 75.6951 71.088C76.4631 71.088 77.0391 70.872 77.4231 70.44C77.8231 69.992 78.0871 69.416 78.2151 68.712C78.3431 67.992 78.4071 67.088 78.4071 66ZM84.0313 61.896C84.0313 60.6 84.3993 59.6 85.1353 58.896C85.8873 58.192 86.8553 57.84 88.0393 57.84C89.2233 57.84 90.1833 58.192 90.9193 58.896C91.6553 59.6 92.0233 60.6 92.0233 61.896C92.0233 63.192 91.6553 64.192 90.9193 64.896C90.1833 65.6 89.2233 65.952 88.0393 65.952C86.8553 65.952 85.8873 65.6 85.1353 64.896C84.3993 64.192 84.0313 63.192 84.0313 61.896ZM100.327 58.104L91.0873 75H87.1273L96.3673 58.104H100.327ZM88.0153 60.24C87.2473 60.24 86.8633 60.792 86.8633 61.896C86.8633 62.984 87.2473 63.528 88.0153 63.528C88.3833 63.528 88.6713 63.392 88.8793 63.12C89.0873 62.848 89.1913 62.44 89.1913 61.896C89.1913 60.792 88.7993 60.24 88.0153 60.24ZM95.4553 71.208C95.4553 69.912 95.8233 68.912 96.5593 68.208C97.2953 67.504 98.2553 67.152 99.4393 67.152C100.623 67.152 101.583 67.504 102.319 68.208C103.055 68.912 103.423 69.912 103.423 71.208C103.423 72.504 103.055 73.504 102.319 74.208C101.583 74.912 100.623 75.264 99.4393 75.264C98.2553 75.264 97.2953 74.912 96.5593 74.208C95.8233 73.504 95.4553 72.504 95.4553 71.208ZM99.4153 69.552C99.0473 69.552 98.7593 69.688 98.5513 69.96C98.3593 70.232 98.2633 70.648 98.2633 71.208C98.2633 72.296 98.6473 72.84 99.4153 72.84C99.7833 72.84 100.071 72.704 100.279 72.432C100.487 72.16 100.591 71.752 100.591 71.208C100.591 70.664 100.487 70.256 100.279 69.984C100.071 69.696 99.7833 69.552 99.4153 69.552Z" fill="#141414"/>
<path d="M66.8466 87.7379V84.5455H67.9119V90H66.8679V89.0554H66.8111C66.6856 89.3466 66.4844 89.5893 66.2074 89.7834C65.9327 89.9751 65.5907 90.071 65.1811 90.071C64.8307 90.071 64.5206 89.9941 64.2507 89.8402C63.9832 89.6839 63.7725 89.4531 63.6186 89.1477C63.4671 88.8423 63.3913 88.4647 63.3913 88.0149V84.5455H64.4531V87.8871C64.4531 88.2588 64.5561 88.5547 64.7621 88.7749C64.968 88.995 65.2355 89.1051 65.5646 89.1051C65.7635 89.1051 65.9612 89.0554 66.1577 88.956C66.3565 88.8565 66.5211 88.7062 66.6513 88.505C66.7838 88.3037 66.8489 88.0481 66.8466 87.7379ZM71.4805 90.1065C71.0401 90.1065 70.6472 89.9941 70.3015 89.7692C69.9582 89.5419 69.6883 89.2187 69.4918 88.7997C69.2977 88.3783 69.2007 87.8729 69.2007 87.2834C69.2007 86.6939 69.2989 86.1896 69.4954 85.7706C69.6943 85.3516 69.9665 85.0308 70.3122 84.8082C70.6578 84.5857 71.0496 84.4744 71.4876 84.4744C71.8261 84.4744 72.0984 84.5312 72.3043 84.6449C72.5127 84.7562 72.6737 84.8864 72.7873 85.0355C72.9033 85.1847 72.9933 85.3161 73.0572 85.4297H73.1211V82.7273H74.1829V90H73.146V89.1513H73.0572C72.9933 89.2673 72.9009 89.3999 72.7802 89.549C72.6618 89.6982 72.4985 89.8284 72.2901 89.9396C72.0818 90.0509 71.8119 90.1065 71.4805 90.1065ZM71.7149 89.201C72.0203 89.201 72.2783 89.1205 72.489 88.9595C72.7021 88.7962 72.8631 88.5701 72.972 88.2812C73.0832 87.9924 73.1389 87.6562 73.1389 87.2727C73.1389 86.8939 73.0844 86.5625 72.9755 86.2784C72.8666 85.9943 72.7068 85.773 72.4961 85.6143C72.2854 85.4557 72.025 85.3764 71.7149 85.3764C71.3953 85.3764 71.1289 85.4593 70.9159 85.625C70.7028 85.7907 70.5418 86.0168 70.4329 86.3033C70.3264 86.5897 70.2731 86.9129 70.2731 87.2727C70.2731 87.6373 70.3276 87.9652 70.4365 88.2564C70.5454 88.5476 70.7063 88.7784 70.9194 88.9489C71.1348 89.117 71.4 89.201 71.7149 89.201ZM75.6847 90V89.272L78.6393 85.5185V85.4688H75.7806V84.5455H79.9638V85.3196L77.1229 89.027V89.0767H80.0633V90H75.6847ZM81.4159 90V84.5455H82.4777V90H81.4159ZM81.9521 83.7038C81.7675 83.7038 81.6089 83.6423 81.4763 83.5192C81.3461 83.3937 81.281 83.2446 81.281 83.0717C81.281 82.8965 81.3461 82.7474 81.4763 82.6243C81.6089 82.4988 81.7675 82.4361 81.9521 82.4361C82.1368 82.4361 82.2942 82.4988 82.4244 82.6243C82.557 82.7474 82.6233 82.8965 82.6233 83.0717C82.6233 83.2446 82.557 83.3937 82.4244 83.5192C82.2942 83.6423 82.1368 83.7038 81.9521 83.7038ZM85.5935 90.1207C85.2479 90.1207 84.9354 90.0568 84.656 89.929C84.3767 89.7988 84.1553 89.6106 83.992 89.3643C83.831 89.1181 83.7505 88.8163 83.7505 88.4588C83.7505 88.151 83.8097 87.8977 83.928 87.6989C84.0464 87.5 84.2062 87.3426 84.4074 87.2266C84.6087 87.1106 84.8336 87.023 85.0822 86.9638C85.3307 86.9046 85.584 86.8596 85.8421 86.8288C86.1688 86.791 86.434 86.7602 86.6376 86.7365C86.8412 86.7105 86.9891 86.669 87.0814 86.6122C87.1738 86.5554 87.2199 86.4631 87.2199 86.3352V86.3104C87.2199 86.0002 87.1323 85.7599 86.9572 85.5895C86.7843 85.419 86.5263 85.3338 86.183 85.3338C85.8255 85.3338 85.5438 85.4131 85.3378 85.5717C85.1342 85.728 84.9934 85.902 84.9153 86.0938L83.9174 85.8665C84.0358 85.535 84.2086 85.2675 84.4358 85.0639C84.6655 84.858 84.9295 84.7088 85.2278 84.6165C85.526 84.5218 85.8397 84.4744 86.1688 84.4744C86.3866 84.4744 86.6174 84.5005 86.8613 84.5526C87.1075 84.6023 87.3371 84.6946 87.5502 84.8295C87.7656 84.9645 87.942 85.1574 88.0793 85.4084C88.2166 85.657 88.2853 85.9801 88.2853 86.3778V90H87.2483V89.2543H87.2057C87.1371 89.3916 87.0341 89.5265 86.8968 89.6591C86.7595 89.7917 86.5831 89.9018 86.3677 89.9893C86.1522 90.0769 85.8942 90.1207 85.5935 90.1207ZM85.8243 89.2685C86.1179 89.2685 86.3688 89.2105 86.5772 89.0945C86.7879 88.9785 86.9477 88.8269 87.0566 88.6399C87.1679 88.4505 87.2235 88.2481 87.2235 88.0327V87.3295C87.1856 87.3674 87.1122 87.4029 87.0033 87.4361C86.8968 87.4669 86.7749 87.4941 86.6376 87.5178C86.5002 87.5391 86.3665 87.5592 86.2363 87.5781C86.1061 87.5947 85.9972 87.6089 85.9096 87.6207C85.7036 87.6468 85.5154 87.6906 85.3449 87.7521C85.1769 87.8137 85.0419 87.9025 84.9401 88.0185C84.8407 88.1321 84.791 88.2836 84.791 88.473C84.791 88.7358 84.888 88.9347 85.0822 89.0696C85.2763 89.2022 85.5237 89.2685 85.8243 89.2685ZM91.607 85.3906V86.0866L89.0502 86.9993V86.3033L91.607 85.3906ZM90.8613 82.7273V90H89.7995V82.7273H90.8613ZM52.9065 105L51.3013 99.5455H52.3987L53.4675 103.551H53.5208L54.5933 99.5455H55.6906L56.7559 103.533H56.8092L57.871 99.5455H58.9683L57.3667 105H56.2836L55.1756 101.062H55.094L53.986 105H52.9065ZM62.8224 105V99.5455H63.8415V100.433H63.909C64.0227 100.133 64.2085 99.8982 64.4665 99.7301C64.7246 99.5597 65.0335 99.4744 65.3934 99.4744C65.758 99.4744 66.0634 99.5597 66.3096 99.7301C66.5582 99.9006 66.7416 100.135 66.86 100.433H66.9168C67.047 100.142 67.2542 99.91 67.5383 99.7372C67.8224 99.562 68.1609 99.4744 68.5539 99.4744C69.0487 99.4744 69.4523 99.6295 69.7648 99.9396C70.0797 100.25 70.2371 100.717 70.2371 101.342V105H69.1754V101.442C69.1754 101.072 69.0747 100.805 68.8735 100.639C68.6723 100.473 68.432 100.391 68.1526 100.391C67.807 100.391 67.5383 100.497 67.3465 100.71C67.1548 100.921 67.0589 101.192 67.0589 101.523V105H66.0006V101.374C66.0006 101.078 65.9083 100.84 65.7237 100.661C65.539 100.481 65.2987 100.391 65.0028 100.391C64.8015 100.391 64.6157 100.444 64.4452 100.55C64.2772 100.655 64.141 100.8 64.0369 100.987C63.9351 101.174 63.8842 101.391 63.8842 101.637V105H62.8224ZM74.1111 105.11C73.5737 105.11 73.1109 104.995 72.7226 104.766C72.3367 104.534 72.0384 104.208 71.8277 103.789C71.6194 103.368 71.5152 102.874 71.5152 102.308C71.5152 101.75 71.6194 101.257 71.8277 100.831C72.0384 100.405 72.332 100.072 72.7084 99.8331C73.0872 99.594 73.5299 99.4744 74.0365 99.4744C74.3443 99.4744 74.6426 99.5253 74.9314 99.6271C75.2203 99.7289 75.4795 99.8887 75.7091 100.107C75.9388 100.324 76.1199 100.607 76.2525 100.955C76.385 101.301 76.4513 101.721 76.4513 102.216V102.592H72.1154V101.797H75.4108C75.4108 101.518 75.354 101.27 75.2404 101.055C75.1267 100.837 74.9669 100.665 74.761 100.54C74.5574 100.414 74.3183 100.352 74.0436 100.352C73.7453 100.352 73.4849 100.425 73.2624 100.572C73.0422 100.716 72.8718 100.906 72.751 101.14C72.6327 101.372 72.5735 101.624 72.5735 101.896V102.518C72.5735 102.882 72.6374 103.192 72.7652 103.448C72.8954 103.704 73.0766 103.899 73.3086 104.034C73.5406 104.167 73.8116 104.233 74.1218 104.233C74.323 104.233 74.5065 104.205 74.6722 104.148C74.8379 104.089 74.9811 104.001 75.1019 103.885C75.2226 103.769 75.315 103.626 75.3789 103.455L76.3838 103.636C76.3033 103.932 76.1589 104.192 75.9506 104.414C75.7446 104.634 75.4854 104.806 75.1729 104.929C74.8628 105.05 74.5088 105.11 74.1111 105.11ZM80.027 105.11C79.4991 105.11 79.0445 104.991 78.6634 104.751C78.2846 104.51 77.9934 104.177 77.7898 103.754C77.5862 103.33 77.4844 102.844 77.4844 102.298C77.4844 101.744 77.5885 101.255 77.7969 100.831C78.0052 100.405 78.2988 100.072 78.6776 99.8331C79.0563 99.594 79.5026 99.4744 80.0163 99.4744C80.4306 99.4744 80.8 99.5514 81.1243 99.7053C81.4486 99.8568 81.7102 100.07 81.9091 100.344C82.1103 100.619 82.2299 100.94 82.2678 101.307H81.2344C81.1776 101.051 81.0473 100.831 80.8438 100.646C80.6425 100.462 80.3726 100.369 80.0341 100.369C79.7382 100.369 79.4789 100.447 79.2564 100.604C79.0362 100.758 78.8646 100.978 78.7415 101.264C78.6184 101.548 78.5568 101.884 78.5568 102.273C78.5568 102.67 78.6172 103.014 78.7379 103.303C78.8587 103.591 79.0291 103.815 79.2493 103.974C79.4718 104.132 79.7334 104.212 80.0341 104.212C80.2353 104.212 80.4176 104.175 80.581 104.102C80.7467 104.026 80.8852 103.918 80.9964 103.778C81.1101 103.639 81.1894 103.471 81.2344 103.274H82.2678C82.2299 103.627 82.1151 103.942 81.9233 104.219C81.7315 104.496 81.4747 104.714 81.1527 104.872C80.8331 105.031 80.4579 105.11 80.027 105.11ZM83.3896 105V104.272L86.3441 100.518V100.469H83.4855V99.5455H87.6687V100.32L84.8278 104.027V104.077H87.7681V105H83.3896ZM90.7082 105.121C90.3625 105.121 90.05 105.057 89.7707 104.929C89.4913 104.799 89.27 104.611 89.1066 104.364C88.9456 104.118 88.8651 103.816 88.8651 103.459C88.8651 103.151 88.9243 102.898 89.0427 102.699C89.1611 102.5 89.3209 102.343 89.5221 102.227C89.7233 102.111 89.9482 102.023 90.1968 101.964C90.4454 101.905 90.6987 101.86 90.9567 101.829C91.2834 101.791 91.5486 101.76 91.7522 101.737C91.9558 101.71 92.1038 101.669 92.1961 101.612C92.2884 101.555 92.3346 101.463 92.3346 101.335V101.31C92.3346 101 92.247 100.76 92.0718 100.589C91.899 100.419 91.6409 100.334 91.2977 100.334C90.9402 100.334 90.6584 100.413 90.4525 100.572C90.2489 100.728 90.108 100.902 90.0299 101.094L89.032 100.866C89.1504 100.535 89.3232 100.268 89.5505 100.064C89.7801 99.858 90.0441 99.7088 90.3424 99.6165C90.6407 99.5218 90.9544 99.4744 91.2834 99.4744C91.5013 99.4744 91.7321 99.5005 91.9759 99.5526C92.2221 99.6023 92.4518 99.6946 92.6648 99.8295C92.8803 99.9645 93.0566 100.157 93.194 100.408C93.3313 100.657 93.3999 100.98 93.3999 101.378V105H92.363V104.254H92.3204C92.2517 104.392 92.1487 104.527 92.0114 104.659C91.8741 104.792 91.6977 104.902 91.4823 104.989C91.2669 105.077 91.0088 105.121 90.7082 105.121ZM90.939 104.268C91.2325 104.268 91.4835 104.21 91.6918 104.094C91.9025 103.978 92.0623 103.827 92.1712 103.64C92.2825 103.451 92.3381 103.248 92.3381 103.033V102.33C92.3003 102.367 92.2269 102.403 92.118 102.436C92.0114 102.467 91.8895 102.494 91.7522 102.518C91.6149 102.539 91.4811 102.559 91.3509 102.578C91.2207 102.595 91.1118 102.609 91.0242 102.621C90.8182 102.647 90.63 102.691 90.4596 102.752C90.2915 102.814 90.1566 102.902 90.0548 103.018C89.9553 103.132 89.9056 103.284 89.9056 103.473C89.9056 103.736 90.0027 103.935 90.1968 104.07C90.3909 104.202 90.6383 104.268 90.939 104.268ZM97.2118 105.11C96.6838 105.11 96.2293 104.991 95.8481 104.751C95.4693 104.51 95.1781 104.177 94.9745 103.754C94.7709 103.33 94.6691 102.844 94.6691 102.298C94.6691 101.744 94.7733 101.255 94.9816 100.831C95.19 100.405 95.4835 100.072 95.8623 99.8331C96.2411 99.594 96.6874 99.4744 97.2011 99.4744C97.6154 99.4744 97.9847 99.5514 98.3091 99.7053C98.6334 99.8568 98.895 100.07 99.0939 100.344C99.2951 100.619 99.4146 100.94 99.4525 101.307H98.4191C98.3623 101.051 98.2321 100.831 98.0285 100.646C97.8273 100.462 97.5574 100.369 97.2189 100.369C96.9229 100.369 96.6637 100.447 96.4412 100.604C96.221 100.758 96.0494 100.978 95.9262 101.264C95.8031 101.548 95.7416 101.884 95.7416 102.273C95.7416 102.67 95.802 103.014 95.9227 103.303C96.0434 103.591 96.2139 103.815 96.4341 103.974C96.6566 104.132 96.9182 104.212 97.2189 104.212C97.4201 104.212 97.6024 104.175 97.7657 104.102C97.9315 104.026 98.0699 103.918 98.1812 103.778C98.2949 103.639 98.3742 103.471 98.4191 103.274H99.4525C99.4146 103.627 99.2998 103.942 99.1081 104.219C98.9163 104.496 98.6594 104.714 98.3375 104.872C98.0179 105.031 97.6426 105.11 97.2118 105.11ZM101.75 101.761V105H100.688V97.7273H101.736V100.433H101.803C101.931 100.14 102.126 99.9065 102.389 99.7337C102.652 99.5608 102.995 99.4744 103.419 99.4744C103.793 99.4744 104.12 99.5514 104.399 99.7053C104.681 99.8591 104.898 100.089 105.052 100.394C105.209 100.697 105.287 101.076 105.287 101.531V105H104.225V101.658C104.225 101.258 104.122 100.948 103.916 100.728C103.71 100.505 103.424 100.394 103.057 100.394C102.806 100.394 102.581 100.447 102.382 100.554C102.185 100.661 102.03 100.817 101.917 101.023C101.805 101.226 101.75 101.473 101.75 101.761Z" fill="#141414" fill-opacity="0.48"/>
</svg>
