<svg viewBox="0 0 18 19" fill="none" xmlns="http://www.w3.org/2000/svg">
<path fill-rule="evenodd" clip-rule="evenodd" d="M3.83447 13.4472L3.12469 16.0962L6.24166 15.261L6.73389 15.4389C7.43908 15.6937 8.2013 15.8333 8.99984 15.8333C12.6817 15.8333 15.6665 12.8486 15.6665 9.16668C15.6665 5.48478 12.6817 2.50001 8.99984 2.50001C5.31794 2.50001 2.33317 5.48478 2.33317 9.16668C2.33317 10.5195 2.73436 11.7736 3.42384 12.8225L3.83447 13.4472ZM1.11621 18.3598C0.961304 18.4013 0.819551 18.2596 0.861059 18.1046L2.0311 13.738C1.1684 12.4255 0.666504 10.8547 0.666504 9.16668C0.666504 4.5643 4.39746 0.833344 8.99984 0.833344C13.6022 0.833344 17.3332 4.5643 17.3332 9.16668C17.3332 13.769 13.6022 17.5 8.99984 17.5C8.00542 17.5 7.05169 17.3258 6.16748 17.0063L1.11621 18.3598Z" fill="#141414" fill-opacity="0.72"/>
</svg>
