<svg viewBox="0 0 18 16"  xmlns="http://www.w3.org/2000/svg">
<path d="M10 1.75C13.4518 1.75 16.25 4.54822 16.25 8C16.25 11.4518 13.4518 14.25 10 14.25C6.81639 14.25 4.18873 11.8697 3.79966 8.79167H5.25L2.875 5.625L0.5 8.79167H2.03868C2.43619 12.8383 5.84887 16 10 16C14.4183 16 18 12.4183 18 8C18 3.58172 14.4183 0 10 0C9.62518 0 9.2559 0.0258382 8.89396 0.0759444L9.13394 1.80941C9.41659 1.77028 9.70568 1.75 10 1.75Z" />
<path d="M6.00288 3.19502C6.44544 2.82641 6.93933 2.51804 7.47192 2.28216L6.76327 0.682067C6.08059 0.984416 5.44854 1.37923 4.8829 1.85035L6.00288 3.19502Z" />
<path d="M4.39919 5.22274C4.52833 4.96288 4.67509 4.71317 4.83794 4.4752L3.39374 3.48689C3.18541 3.79132 2.9975 4.11099 2.83204 4.44393L4.39919 5.22274Z" />
<path d="M10.875 7.1192V4.04167H9.125V8.08913L12.7029 10.3253L13.6304 8.84133L10.875 7.1192Z" />
</svg>
