<svg viewBox="0 0 16 11"  xmlns="http://www.w3.org/2000/svg">
<path d="M14.4 3.2C15.2836 3.2 16 2.48365 16 1.6C16 0.716344 15.2836 0 14.4 0C13.5163 0 12.8 0.716344 12.8 1.6C12.8 1.7127 12.8116 1.82269 12.8338 1.92881L10.8376 3.92504H8.00001C7.70745 3.92504 7.43425 4.07125 7.27197 4.31468L4.80002 8.02262L3.07138 5.42965C3.15416 5.23642 3.2 5.0236 3.2 4.80007C3.2 3.91642 2.48366 3.20007 1.6 3.20007C0.716344 3.20007 0 3.91642 0 4.80007C0 5.68373 0.716344 6.40007 1.6 6.40007L1.61504 6.4L4.07198 10.0854C4.23426 10.3288 4.50746 10.4751 4.80002 10.475C5.09258 10.475 5.36579 10.3288 5.52807 10.0854L8.4683 5.67504H11.2C11.4321 5.67504 11.6546 5.58285 11.8187 5.41876L14.0713 3.1662C14.1774 3.18835 14.2873 3.2 14.4 3.2Z"/>
</svg>
