<svg viewBox="0 0 16 16" xmlns="http://www.w3.org/2000/svg">
<path d="M1.33325 3.33334C1.33325 2.96515 1.63173 2.66667 1.99992 2.66667H13.9999C14.3681 2.66667 14.6666 2.96515 14.6666 3.33334C14.6666 3.70153 14.3681 4.00001 13.9999 4.00001H1.99992C1.63173 4.00001 1.33325 3.70153 1.33325 3.33334Z"/>
<path d="M1.33325 8C1.33325 7.63181 1.63173 7.33334 1.99992 7.33334H13.9999C14.3681 7.33334 14.6666 7.63181 14.6666 8C14.6666 8.36819 14.3681 8.66667 13.9999 8.66667H1.99992C1.63173 8.66667 1.33325 8.36819 1.33325 8Z" />
<path d="M1.99992 12C1.63173 12 1.33325 12.2985 1.33325 12.6667C1.33325 13.0349 1.63173 13.3333 1.99992 13.3333H13.9999C14.3681 13.3333 14.6666 13.0349 14.6666 12.6667C14.6666 12.2985 14.3681 12 13.9999 12H1.99992Z" />
</svg>
