<svg  viewBox="0 0 13 12" fill="none" xmlns="http://www.w3.org/2000/svg">
<path d="M6.5 3.65625C6.03401 3.65625 5.65625 4.03401 5.65625 4.5H4.34375C4.34375 3.30914 5.30914 2.34375 6.5 2.34375C7.69086 2.34375 8.65625 3.30914 8.65625 4.5C8.65625 4.98848 8.53193 5.42072 8.2602 5.77009C7.99288 6.11378 7.63156 6.31456 7.27002 6.43507C7.2209 6.45145 7.18587 6.46549 7.16158 6.47641C7.15674 6.53755 7.15625 6.6167 7.15625 6.75H5.84375L5.84375 6.73454C5.84373 6.6154 5.8437 6.47695 5.85517 6.34922C5.86755 6.21123 5.89628 6.0404 5.9797 5.86817C6.16613 5.48327 6.51581 5.30298 6.85498 5.18993C7.05594 5.12294 7.16337 5.04247 7.22417 4.96429C7.28057 4.89178 7.34375 4.76152 7.34375 4.5C7.34375 4.03401 6.96599 3.65625 6.5 3.65625Z" fill="#141414" fill-opacity="0.48"/>
<path d="M6.5 9.1875C7.01777 9.1875 7.4375 8.76777 7.4375 8.25C7.4375 7.73223 7.01777 7.3125 6.5 7.3125C5.98223 7.3125 5.5625 7.73223 5.5625 8.25C5.5625 8.76777 5.98223 9.1875 6.5 9.1875Z" fill="#141414" fill-opacity="0.48"/>
<path fill-rule="evenodd" clip-rule="evenodd" d="M6.5 12C9.81371 12 12.5 9.31371 12.5 6C12.5 2.68629 9.81371 0 6.5 0C3.18629 0 0.5 2.68629 0.5 6C0.5 9.31371 3.18629 12 6.5 12ZM6.5 10.6875C9.08883 10.6875 11.1875 8.58883 11.1875 6C11.1875 3.41117 9.08883 1.3125 6.5 1.3125C3.91117 1.3125 1.8125 3.41117 1.8125 6C1.8125 8.58883 3.91117 10.6875 6.5 10.6875Z" fill="#141414" fill-opacity="0.48"/>
</svg>
