<svg  viewBox="0 0 32 32" fill="none" xmlns="http://www.w3.org/2000/svg">
<rect width="32" height="32" rx="16" fill="#555555"/>
<path d="M9.78845 16.0769H11.3077V21.75C11.3077 22.4404 11.8673 23 12.5577 23H19.4423C20.1327 23 20.6923 22.4404 20.6923 21.75V16.0769H22.2115C22.9019 16.0769 23.4615 15.5173 23.4615 14.8269V13C23.4615 12.0982 22.9735 11.1207 22.3275 10.3999C21.6676 9.66354 20.6674 9 19.4615 9H17.8461H16.8461V10C16.8461 10.4518 16.7072 10.6089 16.629 10.6741C16.5188 10.766 16.313 10.8462 16 10.8462C15.687 10.8462 15.4812 10.766 15.3709 10.6741C15.2928 10.6089 15.1538 10.4518 15.1538 10V9H14.1538H12.5385C11.3326 9 10.3324 9.66354 9.67243 10.3999C9.02648 11.1207 8.53845 12.0982 8.53845 13V14.8269C8.53845 15.5173 9.09809 16.0769 9.78845 16.0769Z" fill="#555555" stroke="white" stroke-width="2"/>
</svg>
