<svg viewBox="0 0 14 14" fill="none" xmlns="http://www.w3.org/2000/svg">
<path fill-rule="evenodd" clip-rule="evenodd" d="M10.0347 9.02004C10.7653 8.07403 11.2 6.88778 11.2 5.6C11.2 2.50721 8.69279 0 5.6 0C2.50721 0 0 2.50721 0 5.6C0 8.69279 2.50721 11.2 5.6 11.2C6.8642 11.2 8.03056 10.7811 8.96783 10.0745L12.7236 13.8302L13.7842 12.7696L10.0347 9.02004ZM5.6 9.7C3.33563 9.7 1.5 7.86437 1.5 5.6C1.5 3.33563 3.33563 1.5 5.6 1.5C7.86437 1.5 9.7 3.33563 9.7 5.6C9.7 6.74113 9.23578 7.77107 8.48215 8.51602C7.74 9.24963 6.72406 9.7 5.6 9.7Z" fill="#141414" fill-opacity="0.48"/>
</svg>
