<svg viewBox="0 0 16 16" fill="none" xmlns="http://www.w3.org/2000/svg">
<path d="M8 15C-0.324459 11.6576 1.09119 2.13177 1.09119 2.13177L1.5438 1.98944C5.73907 0.67019 10.2609 0.67019 14.4562 1.98944L14.9088 2.13177C14.9088 2.13177 16.3245 11.6576 8 15Z" fill="url(#paint0_linear_518_312)"/>
<path d="M7.94126 2.78927C7.96541 2.73691 8.03983 2.73691 8.06398 2.78927L9.32127 5.51507C9.33111 5.5364 9.35133 5.5511 9.37467 5.55386L12.3556 5.9073C12.4128 5.91409 12.4358 5.98486 12.3935 6.02401L10.1896 8.06208C10.1724 8.07803 10.1647 8.10181 10.1692 8.12486L10.7543 11.0691C10.7655 11.1256 10.7053 11.1694 10.655 11.1412L8.03563 9.67502C8.01512 9.66354 7.99012 9.66354 7.96962 9.67502L5.35027 11.1412C5.29995 11.1694 5.23975 11.1256 5.25099 11.0691L5.836 8.12486C5.84058 8.10181 5.83286 8.07803 5.8156 8.06208L3.61174 6.02401C3.56941 5.98486 3.5924 5.91409 3.64966 5.9073L6.63057 5.55386C6.65391 5.5511 6.67413 5.5364 6.68397 5.51507L7.94126 2.78927Z" fill="url(#paint1_linear_518_312)"/>
<defs>
<linearGradient id="paint0_linear_518_312" x1="12.5091" y1="0.627694" x2="4.26542" y2="12.9465" gradientUnits="userSpaceOnUse">
<stop stop-color="#D0C1FF"/>
<stop offset="1" stop-color="#D6F3F1" stop-opacity="0.5"/>
</linearGradient>
<linearGradient id="paint1_linear_518_312" x1="11.3811" y1="2.65626" x2="8.00262" y2="12.1161" gradientUnits="userSpaceOnUse">
<stop stop-color="#8B2BD8"/>
<stop offset="1" stop-color="#2382B8"/>
</linearGradient>
</defs>
</svg>
