<svg viewBox="0 0 16 16" xmlns="http://www.w3.org/2000/svg">
<path fill-rule="evenodd" clip-rule="evenodd" d="M4.30908 13.2858L5.03969 4.55893L4.51389 1.35764C4.45298 1.06401 4.59561 0.76585 4.86245 0.629011L4.86359 0.628425L4.86514 0.627637L4.86943 0.625462L4.88273 0.618812C4.89365 0.613391 4.90867 0.606032 4.92751 0.597015C4.96516 0.578993 5.01824 0.554272 5.08459 0.525108C5.21695 0.46693 5.40397 0.390246 5.62808 0.313625C6.06807 0.163202 7.35491 0 8 0C9.31175 0 9.93192 0.163202 10.3719 0.313625C10.596 0.390246 10.783 0.46693 10.9154 0.525108C10.9817 0.554272 11.0348 0.578993 11.0725 0.597015C11.0913 0.606032 11.1063 0.613391 11.1173 0.618812L11.1306 0.625462L11.1348 0.627637C11 0.563078 11.137 0.628744 11.137 0.628744C11.4039 0.765583 11.547 1.06401 11.4861 1.35764L10.9603 4.55894L11.6909 13.2858L7.99999 15.8781L4.30908 13.2858ZM5.93028 1.62116C5.97129 1.60602 6.01442 1.59065 6.05941 1.57526C6.43192 1.44791 7.56175 1.33333 8 1.33333C9.10491 1.33333 9.56807 1.44791 9.94058 1.57526C9.98557 1.59065 10.0287 1.60602 10.0697 1.62116L9.82212 3.48134C9.51704 3.39164 9.13728 3.33333 7.99999 3.33333C7.52937 3.33333 6.48295 3.39164 6.17787 3.48134L5.93028 1.62116ZM6.4188 4.94067C6.39352 4.94874 6.36905 4.9568 6.34549 4.96479L6.07014 8.22459L9.74367 6.02046L9.6545 4.96479C9.63094 4.9568 9.60647 4.94874 9.58119 4.94067C9.30895 4.8538 8.30972 4.77778 8 4.77778C7.69027 4.77778 6.69104 4.8538 6.4188 4.94067Z" />
</svg>
