<svg viewBox="0 0 44 45" fill="none" xmlns="http://www.w3.org/2000/svg">
<path fill-rule="evenodd" clip-rule="evenodd" d="M20 32.5H27.4286V18.6538H33V14.5C33 12.1923 30.2977 8.5 26.9643 8.5H23.7143C23.7143 11.2692 21.8572 12.1923 20 12.1923C20 12.1923 20 12.1923 20 12.1923V32.5Z" fill="#81B3FF"/>
<path fill-rule="evenodd" clip-rule="evenodd" d="M20 32.5H12.5715V18.6538H7V14.5C7 12.1923 9.70233 8.5 13.0358 8.5H16.2859C16.2859 11.2691 18.1429 12.1922 20 12.1923V32.5Z" fill="#1E78FF"/>
<path opacity="0.5" d="M32 33.1666L38 38.5H26L32 33.1666Z" fill="#78C253"/>
<path d="M32 29.8334L38 35.1667H26L32 29.8334Z" fill="#78C253"/>
<path d="M32 26.5L38 31.8333H26L32 26.5Z" fill="#2E8F00"/>
</svg>
