<svg viewBox="0 0 14 14" fill="none" xmlns="http://www.w3.org/2000/svg">
<path d="M6.24994 0V3.74999H7.74994V0H6.24994Z" fill="#141414" fill-opacity="0.48"/>
<path fill-rule="evenodd" clip-rule="evenodd" d="M4.80952 5.37C2.42944 5.37 0.5 7.29943 0.5 9.67951C0.5 12.0596 2.42944 13.989 4.80952 13.989C7.1896 13.989 9.11904 12.0596 9.11904 9.67951C9.11904 9.60189 9.11698 9.52471 9.11291 9.44801L13.5001 8.66459V5.37H4.80952ZM2 9.67951C2 8.12786 3.25786 6.87 4.80952 6.87H12.0001V7.40872L7.35175 8.23878L7.53988 9.01381C7.5915 9.22646 7.61904 9.44927 7.61904 9.67951C7.61904 11.2312 6.36117 12.489 4.80952 12.489C3.25786 12.489 2 11.2312 2 9.67951Z" fill="#141414" fill-opacity="0.48"/>
<path d="M3.96967 4.90533L1.46967 2.40534L2.53033 1.34468L5.03033 3.84468L3.96967 4.90533Z" fill="#141414" fill-opacity="0.48"/>
<path d="M12.5303 2.40534L10.0303 4.90533L8.96968 3.84468L11.4697 1.34468L12.5303 2.40534Z" fill="#141414" fill-opacity="0.48"/>
</svg>
