<svg  viewBox="0 0 352 249" fill="none" xmlns="http://www.w3.org/2000/svg">
<path d="M3.23864 54.5994C2.9143 54.5947 2.5947 54.5355 2.27983 54.4219C1.96733 54.3082 1.68324 54.1188 1.42756 53.8537C1.17188 53.5885 0.967093 53.2322 0.81321 52.7848C0.661695 52.3374 0.585938 51.7786 0.585938 51.1087C0.585938 50.4742 0.648674 49.9107 0.774148 49.4183C0.901989 48.9259 1.08546 48.5104 1.32457 48.1719C1.56368 47.831 1.85251 47.5717 2.19105 47.3942C2.52959 47.2166 2.90956 47.1278 3.33097 47.1278C3.7642 47.1278 4.14891 47.2131 4.48509 47.3835C4.82126 47.554 5.09351 47.7895 5.30185 48.0902C5.51255 48.3909 5.64631 48.733 5.70312 49.1165H4.62003C4.54664 48.8134 4.40104 48.5661 4.18324 48.3743C3.96544 48.1825 3.68134 48.0866 3.33097 48.0866C2.7983 48.0866 2.38281 48.3187 2.08452 48.7827C1.78859 49.2467 1.63944 49.8918 1.63707 50.718H1.69034C1.81581 50.5121 1.9697 50.3369 2.15199 50.1925C2.33665 50.0457 2.54261 49.9332 2.76989 49.8551C2.99953 49.7746 3.241 49.7344 3.49432 49.7344C3.91572 49.7344 4.29688 49.8374 4.63778 50.0433C4.98106 50.2469 5.2545 50.5286 5.4581 50.8885C5.6617 51.2483 5.76349 51.6603 5.76349 52.1243C5.76349 52.5883 5.65814 53.0085 5.44744 53.3849C5.23911 53.7614 4.94555 54.0597 4.56676 54.2798C4.18797 54.4976 3.74527 54.6042 3.23864 54.5994ZM3.23509 53.6761C3.51444 53.6761 3.7642 53.6075 3.98438 53.4702C4.20455 53.3329 4.37855 53.1482 4.50639 52.9162C4.63423 52.6842 4.69815 52.425 4.69815 52.1385C4.69815 51.8591 4.63542 51.6046 4.50994 51.375C4.38684 51.1454 4.21638 50.9631 3.99858 50.8281C3.78314 50.6932 3.53693 50.6257 3.25994 50.6257C3.04924 50.6257 2.85393 50.666 2.67401 50.7464C2.49645 50.8269 2.3402 50.9382 2.20526 51.0803C2.07031 51.2223 1.96378 51.3857 1.88565 51.5703C1.8099 51.7526 1.77202 51.9455 1.77202 52.1491C1.77202 52.4214 1.83475 52.6735 1.96023 52.9055C2.08807 53.1375 2.26207 53.3246 2.48224 53.4666C2.70478 53.6063 2.95573 53.6761 3.23509 53.6761ZM7.0043 53.0795V52.1918L10.1471 47.2273H10.8466V48.5341H10.4027L8.15487 52.0923V52.1491H12.4624V53.0795H7.0043ZM10.4525 54.5V52.8097L10.4596 52.4048V47.2273H11.5V54.5H10.4525Z" fill="#141414" fill-opacity="0.48"/>
<rect width="307" height="1" transform="translate(28 50.5)" fill="#EBEDF0"/>
<path d="M3.23864 108.933C2.9143 108.928 2.5947 108.869 2.27983 108.755C1.96733 108.641 1.68324 108.452 1.42756 108.187C1.17188 107.922 0.967093 107.565 0.81321 107.118C0.661695 106.671 0.585938 106.112 0.585938 105.442C0.585938 104.807 0.648674 104.244 0.774148 103.752C0.901989 103.259 1.08546 102.844 1.32457 102.505C1.56368 102.164 1.85251 101.905 2.19105 101.727C2.52959 101.55 2.90956 101.461 3.33097 101.461C3.7642 101.461 4.14891 101.546 4.48509 101.717C4.82126 101.887 5.09351 102.123 5.30185 102.423C5.51255 102.724 5.64631 103.066 5.70312 103.45H4.62003C4.54664 103.147 4.40104 102.899 4.18324 102.708C3.96544 102.516 3.68134 102.42 3.33097 102.42C2.7983 102.42 2.38281 102.652 2.08452 103.116C1.78859 103.58 1.63944 104.225 1.63707 105.051H1.69034C1.81581 104.845 1.9697 104.67 2.15199 104.526C2.33665 104.379 2.54261 104.266 2.76989 104.188C2.99953 104.108 3.241 104.068 3.49432 104.068C3.91572 104.068 4.29688 104.171 4.63778 104.377C4.98106 104.58 5.2545 104.862 5.4581 105.222C5.6617 105.582 5.76349 105.994 5.76349 106.458C5.76349 106.922 5.65814 107.342 5.44744 107.718C5.23911 108.095 4.94555 108.393 4.56676 108.613C4.18797 108.831 3.74527 108.937 3.23864 108.933ZM3.23509 108.009C3.51444 108.009 3.7642 107.941 3.98438 107.803C4.20455 107.666 4.37855 107.481 4.50639 107.249C4.63423 107.017 4.69815 106.758 4.69815 106.472C4.69815 106.192 4.63542 105.938 4.50994 105.708C4.38684 105.479 4.21638 105.296 3.99858 105.161C3.78314 105.026 3.53693 104.959 3.25994 104.959C3.04924 104.959 2.85393 104.999 2.67401 105.08C2.49645 105.16 2.3402 105.271 2.20526 105.414C2.07031 105.556 1.96378 105.719 1.88565 105.904C1.8099 106.086 1.77202 106.279 1.77202 106.482C1.77202 106.755 1.83475 107.007 1.96023 107.239C2.08807 107.471 2.26207 107.658 2.48224 107.8C2.70478 107.94 2.95573 108.009 3.23509 108.009ZM9.68896 108.933C9.20127 108.933 8.76566 108.849 8.38214 108.681C8.00098 108.512 7.69914 108.279 7.4766 107.981C7.25643 107.68 7.13806 107.332 7.12148 106.937H8.23654C8.25075 107.152 8.32295 107.339 8.45316 107.498C8.58574 107.654 8.75856 107.775 8.97163 107.86C9.18469 107.945 9.42144 107.988 9.68185 107.988C9.96831 107.988 10.2216 107.938 10.4418 107.839C10.6643 107.74 10.8383 107.601 10.9638 107.423C11.0893 107.244 11.152 107.036 11.152 106.802C11.152 106.558 11.0893 106.344 10.9638 106.159C10.8407 105.972 10.6596 105.825 10.4205 105.719C10.1837 105.612 9.89729 105.559 9.56111 105.559H8.94677V104.664H9.56111C9.831 104.664 10.0677 104.616 10.2713 104.519C10.4773 104.422 10.6383 104.287 10.7543 104.114C10.8703 103.939 10.9283 103.734 10.9283 103.499C10.9283 103.275 10.8774 103.079 10.7756 102.914C10.6762 102.745 10.5341 102.614 10.3495 102.519C10.1672 102.425 9.95174 102.377 9.70316 102.377C9.46642 102.377 9.24506 102.421 9.0391 102.509C8.8355 102.594 8.66978 102.717 8.54194 102.878C8.4141 103.037 8.34544 103.227 8.33597 103.45H7.27418C7.28602 103.057 7.40202 102.711 7.62219 102.413C7.84473 102.115 8.13829 101.881 8.50288 101.713C8.86746 101.545 9.27229 101.461 9.71737 101.461C10.1837 101.461 10.5862 101.552 10.9248 101.735C11.2657 101.914 11.5284 102.155 11.7131 102.455C11.9001 102.756 11.9925 103.085 11.9901 103.443C11.9925 103.85 11.8788 104.195 11.6492 104.48C11.4219 104.764 11.1189 104.954 10.7401 105.051V105.108C11.223 105.181 11.5971 105.373 11.8623 105.683C12.1298 105.994 12.2623 106.378 12.26 106.838C12.2623 107.238 12.1511 107.596 11.9262 107.914C11.7036 108.231 11.3994 108.481 11.0135 108.663C10.6276 108.843 10.1861 108.933 9.68896 108.933Z" fill="#141414" fill-opacity="0.48"/>
<rect width="307" height="1" transform="translate(28 104.833)" fill="#EBEDF0"/>
<path d="M3.23864 163.266C2.9143 163.261 2.5947 163.202 2.27983 163.089C1.96733 162.975 1.68324 162.786 1.42756 162.52C1.17188 162.255 0.967093 161.899 0.81321 161.452C0.661695 161.004 0.585938 160.445 0.585938 159.775C0.585938 159.141 0.648674 158.577 0.774148 158.085C0.901989 157.593 1.08546 157.177 1.32457 156.839C1.56368 156.498 1.85251 156.238 2.19105 156.061C2.52959 155.883 2.90956 155.795 3.33097 155.795C3.7642 155.795 4.14891 155.88 4.48509 156.05C4.82126 156.221 5.09351 156.456 5.30185 156.757C5.51255 157.058 5.64631 157.4 5.70312 157.783H4.62003C4.54664 157.48 4.40104 157.233 4.18324 157.041C3.96544 156.849 3.68134 156.753 3.33097 156.753C2.7983 156.753 2.38281 156.985 2.08452 157.449C1.78859 157.913 1.63944 158.559 1.63707 159.385H1.69034C1.81581 159.179 1.9697 159.004 2.15199 158.859C2.33665 158.712 2.54261 158.6 2.76989 158.522C2.99953 158.441 3.241 158.401 3.49432 158.401C3.91572 158.401 4.29688 158.504 4.63778 158.71C4.98106 158.914 5.2545 159.195 5.4581 159.555C5.6617 159.915 5.76349 160.327 5.76349 160.791C5.76349 161.255 5.65814 161.675 5.44744 162.052C5.23911 162.428 4.94555 162.726 4.56676 162.947C4.18797 163.164 3.74527 163.271 3.23864 163.266ZM3.23509 162.343C3.51444 162.343 3.7642 162.274 3.98438 162.137C4.20455 162 4.37855 161.815 4.50639 161.583C4.63423 161.351 4.69815 161.092 4.69815 160.805C4.69815 160.526 4.63542 160.271 4.50994 160.042C4.38684 159.812 4.21638 159.63 3.99858 159.495C3.78314 159.36 3.53693 159.292 3.25994 159.292C3.04924 159.292 2.85393 159.333 2.67401 159.413C2.49645 159.494 2.3402 159.605 2.20526 159.747C2.07031 159.889 1.96378 160.052 1.88565 160.237C1.8099 160.419 1.77202 160.612 1.77202 160.816C1.77202 161.088 1.83475 161.34 1.96023 161.572C2.08807 161.804 2.26207 161.991 2.48224 162.133C2.70478 162.273 2.95573 162.343 3.23509 162.343ZM7.157 163.167V162.371L9.61793 159.822C9.88072 159.545 10.0973 159.302 10.2678 159.094C10.4406 158.883 10.5696 158.683 10.6549 158.493C10.7401 158.304 10.7827 158.103 10.7827 157.89C10.7827 157.648 10.7259 157.44 10.6123 157.265C10.4986 157.087 10.3435 156.951 10.1471 156.856C9.95056 156.759 9.7292 156.711 9.48299 156.711C9.22257 156.711 8.9953 156.764 8.80117 156.871C8.60704 156.977 8.4579 157.127 8.35373 157.322C8.24956 157.516 8.19748 157.743 8.19748 158.003H7.14989C7.14989 157.561 7.25169 157.174 7.45529 156.842C7.65889 156.511 7.93825 156.254 8.29336 156.072C8.64847 155.887 9.05212 155.795 9.5043 155.795C9.96121 155.795 10.3637 155.886 10.7117 156.068C11.0621 156.248 11.3355 156.494 11.532 156.807C11.7285 157.117 11.8267 157.467 11.8267 157.858C11.8267 158.128 11.7758 158.392 11.674 158.65C11.5746 158.908 11.4006 159.195 11.152 159.513C10.9034 159.827 10.5578 160.21 10.1151 160.66L8.66978 162.172V162.226H11.9439V163.167H7.157Z" fill="#141414" fill-opacity="0.48"/>
<rect width="307" height="1" transform="translate(28 159.167)" fill="#EBEDF0"/>
<path d="M3.23864 217.599C2.9143 217.595 2.5947 217.536 2.27983 217.422C1.96733 217.308 1.68324 217.119 1.42756 216.854C1.17188 216.589 0.967093 216.232 0.81321 215.785C0.661695 215.337 0.585938 214.779 0.585938 214.109C0.585938 213.474 0.648674 212.911 0.774148 212.418C0.901989 211.926 1.08546 211.51 1.32457 211.172C1.56368 210.831 1.85251 210.572 2.19105 210.394C2.52959 210.217 2.90956 210.128 3.33097 210.128C3.7642 210.128 4.14891 210.213 4.48509 210.384C4.82126 210.554 5.09351 210.79 5.30185 211.09C5.51255 211.391 5.64631 211.733 5.70312 212.116H4.62003C4.54664 211.813 4.40104 211.566 4.18324 211.374C3.96544 211.183 3.68134 211.087 3.33097 211.087C2.7983 211.087 2.38281 211.319 2.08452 211.783C1.78859 212.247 1.63944 212.892 1.63707 213.718H1.69034C1.81581 213.512 1.9697 213.337 2.15199 213.192C2.33665 213.046 2.54261 212.933 2.76989 212.855C2.99953 212.775 3.241 212.734 3.49432 212.734C3.91572 212.734 4.29688 212.837 4.63778 213.043C4.98106 213.247 5.2545 213.529 5.4581 213.888C5.6617 214.248 5.76349 214.66 5.76349 215.124C5.76349 215.588 5.65814 216.009 5.44744 216.385C5.23911 216.761 4.94555 217.06 4.56676 217.28C4.18797 217.498 3.74527 217.604 3.23864 217.599ZM3.23509 216.676C3.51444 216.676 3.7642 216.607 3.98438 216.47C4.20455 216.333 4.37855 216.148 4.50639 215.916C4.63423 215.684 4.69815 215.425 4.69815 215.138C4.69815 214.859 4.63542 214.605 4.50994 214.375C4.38684 214.145 4.21638 213.963 3.99858 213.828C3.78314 213.693 3.53693 213.626 3.25994 213.626C3.04924 213.626 2.85393 213.666 2.67401 213.746C2.49645 213.827 2.3402 213.938 2.20526 214.08C2.07031 214.222 1.96378 214.386 1.88565 214.57C1.8099 214.753 1.77202 214.946 1.77202 215.149C1.77202 215.421 1.83475 215.674 1.96023 215.906C2.08807 216.138 2.26207 216.325 2.48224 216.467C2.70478 216.606 2.95573 216.676 3.23509 216.676ZM9.91623 210.227V217.5H8.81538V211.328H8.77276L7.03271 212.464V211.413L8.84734 210.227H9.91623Z" fill="#141414" fill-opacity="0.48"/>
<rect width="307" height="1" transform="translate(28 213.5)" fill="#EBEDF0"/>
<line x1="317.5" y1="32.5" x2="317.5" y2="231.5" stroke="#C7C7C7" stroke-dasharray="3 4"/>
<g clip-path="url(#clip0_1146_12061)">
<path d="M46 187.5L100.104 214.5L152.348 187.5H208.313L262.417 187.252L317 158.5" stroke="#8F8F8F" stroke-width="2" stroke-linecap="square"/>
<g filter="url(#filter0_dd_1146_12061)">
<circle cx="317" cy="159" r="6" fill="#8F8F8F"/>
</g>
</g>
<g filter="url(#filter1_d_1146_12061)">
<path d="M46 160.5L100.104 131L152.348 160.5L208.313 75.5L262.417 135.252L317 105.5" stroke="#F00E0E" stroke-width="3" stroke-linecap="square"/>
</g>
<g filter="url(#filter2_dd_1146_12061)">
<circle cx="317" cy="106" r="6" fill="#F00E0E"/>
</g>
<rect x="302" y="229" width="30" height="20" rx="3" fill="#EBEDF0"/>
<path d="M313.88 242.599C313.506 242.597 313.145 242.534 312.797 242.411C312.452 242.288 312.142 242.088 311.867 241.811C311.592 241.534 311.375 241.167 311.214 240.71C311.055 240.253 310.976 239.692 310.976 239.027C310.978 238.416 311.048 237.871 311.185 237.39C311.325 236.907 311.524 236.497 311.782 236.161C312.042 235.825 312.353 235.569 312.716 235.394C313.078 235.217 313.484 235.128 313.934 235.128C314.419 235.128 314.848 235.223 315.219 235.412C315.591 235.599 315.889 235.853 316.114 236.175C316.341 236.497 316.479 236.858 316.526 237.259H315.01C314.951 237.005 314.826 236.806 314.637 236.662C314.447 236.518 314.213 236.445 313.934 236.445C313.46 236.445 313.1 236.651 312.854 237.063C312.61 237.475 312.486 238.035 312.481 238.743H312.531C312.64 238.527 312.787 238.344 312.971 238.192C313.158 238.039 313.37 237.921 313.607 237.841C313.846 237.758 314.098 237.717 314.363 237.717C314.794 237.717 315.178 237.818 315.514 238.022C315.85 238.223 316.115 238.5 316.309 238.853C316.504 239.206 316.601 239.609 316.601 240.064C316.601 240.556 316.486 240.994 316.256 241.378C316.029 241.761 315.711 242.062 315.301 242.28C314.894 242.495 314.42 242.602 313.88 242.599ZM313.873 241.392C314.11 241.392 314.322 241.335 314.509 241.222C314.696 241.108 314.843 240.954 314.949 240.76C315.056 240.566 315.109 240.348 315.109 240.107C315.109 239.865 315.056 239.648 314.949 239.457C314.845 239.265 314.701 239.112 314.516 238.999C314.331 238.885 314.121 238.828 313.884 238.828C313.706 238.828 313.542 238.861 313.39 238.928C313.241 238.994 313.11 239.086 312.996 239.205C312.885 239.323 312.797 239.46 312.733 239.616C312.67 239.77 312.638 239.935 312.638 240.11C312.638 240.344 312.691 240.559 312.797 240.753C312.906 240.947 313.053 241.102 313.238 241.218C313.425 241.334 313.637 241.392 313.873 241.392ZM317.791 242.5V241.392L320.38 238.995C320.6 238.782 320.784 238.59 320.934 238.42C321.085 238.249 321.2 238.082 321.278 237.919C321.356 237.753 321.395 237.575 321.395 237.383C321.395 237.17 321.347 236.986 321.25 236.832C321.153 236.676 321.02 236.557 320.852 236.474C320.684 236.388 320.493 236.346 320.28 236.346C320.058 236.346 319.864 236.391 319.698 236.481C319.532 236.571 319.404 236.7 319.314 236.868C319.224 237.036 319.179 237.236 319.179 237.468H317.72C317.72 236.992 317.828 236.579 318.043 236.229C318.258 235.878 318.56 235.607 318.949 235.415C319.337 235.224 319.784 235.128 320.291 235.128C320.812 235.128 321.265 235.22 321.651 235.405C322.039 235.587 322.341 235.84 322.556 236.165C322.772 236.489 322.88 236.861 322.88 237.28C322.88 237.554 322.825 237.826 322.716 238.093C322.61 238.361 322.419 238.658 322.145 238.984C321.87 239.309 321.483 239.698 320.983 240.153L319.922 241.193V241.243H322.976V242.5H317.791Z" fill="#141414"/>
<path d="M294.872 11.5V10.7045L297.333 8.15483C297.595 7.87784 297.812 7.63518 297.982 7.42685C298.155 7.21615 298.284 7.0161 298.37 6.8267C298.455 6.63731 298.497 6.43608 298.497 6.22301C298.497 5.98153 298.441 5.7732 298.327 5.59801C298.213 5.42045 298.058 5.28433 297.862 5.18963C297.665 5.09257 297.444 5.04403 297.198 5.04403C296.937 5.04403 296.71 5.0973 296.516 5.20384C296.322 5.31037 296.173 5.4607 296.068 5.65483C295.964 5.84896 295.912 6.07623 295.912 6.33665H294.865C294.865 5.89394 294.966 5.50687 295.17 5.17543C295.374 4.84399 295.653 4.58712 296.008 4.40483C296.363 4.22017 296.767 4.12784 297.219 4.12784C297.676 4.12784 298.078 4.21899 298.426 4.40128C298.777 4.5812 299.05 4.82741 299.247 5.13991C299.443 5.45005 299.541 5.80043 299.541 6.19105C299.541 6.46094 299.49 6.72491 299.389 6.98295C299.289 7.241 299.115 7.52865 298.867 7.84588C298.618 8.16075 298.272 8.54309 297.83 8.9929L296.384 10.5057V10.5589H299.659V11.5H294.872ZM303.636 11.6207C303.075 11.6184 302.596 11.4704 302.198 11.1768C301.8 10.8833 301.496 10.456 301.286 9.89489C301.075 9.33381 300.97 8.65791 300.97 7.86719C300.97 7.07884 301.075 6.4053 301.286 5.84659C301.499 5.28788 301.804 4.86174 302.202 4.56818C302.602 4.27462 303.08 4.12784 303.636 4.12784C304.193 4.12784 304.67 4.2758 305.068 4.57173C305.465 4.86529 305.769 5.29143 305.98 5.85014C306.193 6.40649 306.3 7.07884 306.3 7.86719C306.3 8.66027 306.194 9.33736 305.984 9.89844C305.773 10.4571 305.469 10.8845 305.071 11.1804C304.673 11.474 304.195 11.6207 303.636 11.6207ZM303.636 10.6726C304.129 10.6726 304.514 10.4323 304.791 9.9517C305.07 9.47112 305.21 8.77628 305.21 7.86719C305.21 7.26349 305.146 6.75331 305.018 6.33665C304.892 5.91761 304.711 5.60038 304.474 5.38494C304.24 5.16714 303.961 5.05824 303.636 5.05824C303.146 5.05824 302.762 5.29972 302.482 5.78267C302.203 6.26562 302.062 6.96046 302.06 7.86719C302.06 8.47325 302.122 8.9858 302.248 9.40483C302.376 9.8215 302.557 10.1375 302.791 10.353C303.026 10.5661 303.307 10.6726 303.636 10.6726ZM311.482 4.22727V11.5H310.42V4.22727H311.482ZM316.466 9.23793V6.04545H317.531V11.5H316.487V10.5554H316.43C316.305 10.8466 316.103 11.0893 315.827 11.2834C315.552 11.4751 315.21 11.571 314.8 11.571C314.45 11.571 314.14 11.4941 313.87 11.3402C313.602 11.1839 313.392 10.9531 313.238 10.6477C313.086 10.3423 313.01 9.96473 313.01 9.51491V6.04545H314.072V9.38707C314.072 9.75876 314.175 10.0547 314.381 10.2749C314.587 10.495 314.855 10.6051 315.184 10.6051C315.383 10.6051 315.58 10.5554 315.777 10.456C315.976 10.3565 316.14 10.2062 316.27 10.005C316.403 9.80374 316.468 9.54806 316.466 9.23793ZM321.604 6.04545V6.89773H318.624V6.04545H321.604ZM319.423 4.73864H320.485V9.89844C320.485 10.1044 320.516 10.2595 320.578 10.3636C320.639 10.4654 320.718 10.5353 320.816 10.5732C320.915 10.6087 321.023 10.6264 321.139 10.6264C321.224 10.6264 321.298 10.6205 321.362 10.6087C321.426 10.5968 321.476 10.5874 321.512 10.5803L321.703 11.4574C321.642 11.4811 321.554 11.5047 321.441 11.5284C321.327 11.5545 321.185 11.5687 321.014 11.571C320.735 11.5758 320.475 11.526 320.233 11.4219C319.992 11.3177 319.796 11.1567 319.647 10.9389C319.498 10.7211 319.423 10.4477 319.423 10.1186V4.73864ZM325.415 6.5V5.81818C325.415 5.61695 325.453 5.40507 325.529 5.18253C325.605 4.95999 325.71 4.74692 325.845 4.54332C325.98 4.33973 326.139 4.16572 326.321 4.02131L326.847 4.39773C326.702 4.60843 326.579 4.8286 326.477 5.05824C326.375 5.28788 326.324 5.53764 326.324 5.80753V6.5H325.415ZM327.849 11.5V10.7045L330.31 8.15483C330.573 7.87784 330.79 7.63518 330.96 7.42685C331.133 7.21615 331.262 7.0161 331.347 6.8267C331.432 6.63731 331.475 6.43608 331.475 6.22301C331.475 5.98153 331.418 5.7732 331.305 5.59801C331.191 5.42045 331.036 5.28433 330.839 5.18963C330.643 5.09257 330.422 5.04403 330.175 5.04403C329.915 5.04403 329.688 5.0973 329.494 5.20384C329.299 5.31037 329.15 5.4607 329.046 5.65483C328.942 5.84896 328.89 6.07623 328.89 6.33665H327.842C327.842 5.89394 327.944 5.50687 328.148 5.17543C328.351 4.84399 328.631 4.58712 328.986 4.40483C329.341 4.22017 329.745 4.12784 330.197 4.12784C330.654 4.12784 331.056 4.21899 331.404 4.40128C331.754 4.5812 332.028 4.82741 332.224 5.13991C332.421 5.45005 332.519 5.80043 332.519 6.19105C332.519 6.46094 332.468 6.72491 332.366 6.98295C332.267 7.241 332.093 7.52865 331.844 7.84588C331.596 8.16075 331.25 8.54309 330.807 8.9929L329.362 10.5057V10.5589H332.636V11.5H327.849ZM336.614 11.5994C336.126 11.5994 335.691 11.5154 335.307 11.3473C334.926 11.1792 334.624 10.946 334.402 10.6477C334.182 10.3471 334.063 9.99905 334.047 9.60369H335.162C335.176 9.81913 335.248 10.0062 335.378 10.1648C335.511 10.321 335.684 10.4418 335.897 10.527C336.11 10.6122 336.347 10.6548 336.607 10.6548C336.894 10.6548 337.147 10.6051 337.367 10.5057C337.59 10.4062 337.764 10.2678 337.889 10.0902C338.014 9.91027 338.077 9.70312 338.077 9.46875C338.077 9.22491 338.014 9.01065 337.889 8.82599C337.766 8.63897 337.585 8.49219 337.346 8.38565C337.109 8.27912 336.822 8.22585 336.486 8.22585H335.872V7.33097H336.486C336.756 7.33097 336.993 7.28243 337.197 7.18537C337.403 7.0883 337.563 6.95336 337.679 6.78054C337.795 6.60535 337.853 6.40057 337.853 6.16619C337.853 5.94129 337.803 5.74598 337.701 5.58026C337.601 5.41217 337.459 5.28078 337.275 5.18608C337.092 5.09138 336.877 5.04403 336.628 5.04403C336.392 5.04403 336.17 5.08783 335.964 5.17543C335.761 5.26065 335.595 5.38376 335.467 5.54474C335.339 5.70336 335.271 5.89394 335.261 6.11648H334.199C334.211 5.72348 334.327 5.37784 334.547 5.07955C334.77 4.78125 335.063 4.54806 335.428 4.37997C335.793 4.21188 336.197 4.12784 336.643 4.12784C337.109 4.12784 337.511 4.21899 337.85 4.40128C338.191 4.5812 338.454 4.8215 338.638 5.12216C338.825 5.42282 338.918 5.75189 338.915 6.10938C338.918 6.51657 338.804 6.86222 338.574 7.14631C338.347 7.4304 338.044 7.62098 337.665 7.71804V7.77486C338.148 7.84825 338.522 8.04001 338.787 8.35014C339.055 8.66027 339.188 9.04498 339.185 9.50426C339.188 9.90436 339.076 10.263 338.851 10.5803C338.629 10.8975 338.325 11.1473 337.939 11.3295C337.553 11.5095 337.111 11.5994 336.614 11.5994Z" fill="#141414" fill-opacity="0.48"/>
<rect x="302" y="19.5" width="30" height="20" rx="3" fill="#F00E0E"/>
<path d="M313.734 33.0994C313.36 33.0971 312.999 33.0343 312.651 32.9112C312.305 32.7881 311.995 32.5881 311.721 32.3111C311.446 32.0341 311.228 31.6671 311.067 31.2102C310.908 30.7533 310.829 30.1922 310.829 29.527C310.832 28.9162 310.901 28.3705 311.039 27.8899C311.178 27.407 311.377 26.9974 311.635 26.6612C311.896 26.325 312.207 26.0694 312.569 25.8942C312.931 25.7166 313.337 25.6278 313.787 25.6278C314.273 25.6278 314.701 25.7225 315.073 25.9119C315.444 26.099 315.743 26.3535 315.968 26.6754C316.195 26.9974 316.332 27.3584 316.38 27.7585H314.863C314.804 27.5052 314.68 27.3063 314.49 27.1619C314.301 27.0175 314.067 26.9453 313.787 26.9453C313.314 26.9453 312.954 27.1513 312.708 27.5632C312.464 27.9751 312.34 28.535 312.335 29.2429H312.385C312.493 29.0275 312.64 28.844 312.825 28.6925C313.012 28.5386 313.224 28.4214 313.461 28.3409C313.7 28.258 313.952 28.2166 314.217 28.2166C314.648 28.2166 315.031 28.3184 315.368 28.522C315.704 28.7232 315.969 29.0002 316.163 29.353C316.357 29.7057 316.454 30.1094 316.454 30.5639C316.454 31.0563 316.339 31.4943 316.11 31.8778C315.882 32.2614 315.564 32.562 315.154 32.7798C314.747 32.9953 314.274 33.1018 313.734 33.0994ZM313.727 31.892C313.964 31.892 314.176 31.8352 314.363 31.7216C314.55 31.608 314.696 31.4541 314.803 31.2599C314.909 31.0658 314.963 30.848 314.963 30.6065C314.963 30.3651 314.909 30.1484 314.803 29.9567C314.699 29.7649 314.554 29.6122 314.37 29.4986C314.185 29.3849 313.974 29.3281 313.738 29.3281C313.56 29.3281 313.395 29.3613 313.244 29.4276C313.095 29.4938 312.963 29.5862 312.85 29.7045C312.739 29.8229 312.651 29.9602 312.587 30.1165C312.523 30.2704 312.491 30.4349 312.491 30.6101C312.491 30.8445 312.544 31.0587 312.651 31.2528C312.76 31.447 312.907 31.602 313.091 31.718C313.278 31.834 313.49 31.892 313.727 31.892ZM320.333 33.0994C319.802 33.0994 319.33 33.0083 318.916 32.826C318.504 32.6413 318.178 32.388 317.939 32.0661C317.702 31.7417 317.58 31.3677 317.573 30.9439H319.122C319.131 31.1214 319.189 31.2777 319.296 31.4126C319.405 31.5452 319.549 31.6482 319.729 31.7216C319.909 31.795 320.111 31.8317 320.336 31.8317C320.571 31.8317 320.778 31.7902 320.958 31.7074C321.138 31.6245 321.278 31.5097 321.38 31.3629C321.482 31.2161 321.533 31.0469 321.533 30.8551C321.533 30.661 321.478 30.4893 321.37 30.3402C321.263 30.1887 321.109 30.0703 320.908 29.9851C320.709 29.8999 320.472 29.8572 320.198 29.8572H319.519V28.728H320.198C320.43 28.728 320.634 28.6877 320.812 28.6072C320.992 28.5268 321.132 28.4155 321.231 28.2734C321.33 28.129 321.38 27.9609 321.38 27.7692C321.38 27.5869 321.336 27.4271 321.249 27.2898C321.164 27.1501 321.043 27.0412 320.887 26.9631C320.733 26.8849 320.553 26.8459 320.347 26.8459C320.138 26.8459 319.948 26.8838 319.775 26.9595C319.602 27.0329 319.464 27.1383 319.36 27.2756C319.255 27.4129 319.2 27.5739 319.193 27.7585H317.719C317.726 27.3395 317.846 26.9702 318.078 26.6506C318.31 26.331 318.622 26.0812 319.015 25.9013C319.41 25.719 319.857 25.6278 320.354 25.6278C320.856 25.6278 321.295 25.719 321.671 25.9013C322.048 26.0836 322.34 26.3298 322.548 26.6399C322.759 26.9477 322.863 27.2933 322.861 27.6768C322.863 28.084 322.737 28.4238 322.481 28.696C322.228 28.9683 321.897 29.1411 321.49 29.2145V29.2713C322.025 29.34 322.432 29.5258 322.712 29.8288C322.994 30.1295 323.133 30.5059 323.131 30.9581C323.133 31.3724 323.014 31.7405 322.772 32.0625C322.533 32.3845 322.203 32.6378 321.781 32.8224C321.36 33.0071 320.877 33.0994 320.333 33.0994Z" fill="white"/>
<defs>
<filter id="filter0_dd_1146_12061" x="295" y="141" width="44" height="44" filterUnits="userSpaceOnUse" color-interpolation-filters="sRGB">
<feFlood flood-opacity="0" result="BackgroundImageFix"/>
<feColorMatrix in="SourceAlpha" type="matrix" values="0 0 0 0 0 0 0 0 0 0 0 0 0 0 0 0 0 0 127 0" result="hardAlpha"/>
<feOffset dy="4"/>
<feGaussianBlur stdDeviation="8"/>
<feComposite in2="hardAlpha" operator="out"/>
<feColorMatrix type="matrix" values="0 0 0 0 0.0784314 0 0 0 0 0.0784314 0 0 0 0 0.0784314 0 0 0 0.08 0"/>
<feBlend mode="normal" in2="BackgroundImageFix" result="effect1_dropShadow_1146_12061"/>
<feColorMatrix in="SourceAlpha" type="matrix" values="0 0 0 0 0 0 0 0 0 0 0 0 0 0 0 0 0 0 127 0" result="hardAlpha"/>
<feOffset dy="1"/>
<feGaussianBlur stdDeviation="2"/>
<feComposite in2="hardAlpha" operator="out"/>
<feColorMatrix type="matrix" values="0 0 0 0 0.0784314 0 0 0 0 0.0784314 0 0 0 0 0.0784314 0 0 0 0.08 0"/>
<feBlend mode="normal" in2="effect1_dropShadow_1146_12061" result="effect2_dropShadow_1146_12061"/>
<feBlend mode="normal" in="SourceGraphic" in2="effect2_dropShadow_1146_12061" result="shape"/>
</filter>
<filter id="filter1_d_1146_12061" x="11.965" y="57.0576" width="339.07" height="153.477" filterUnits="userSpaceOnUse" color-interpolation-filters="sRGB">
<feFlood flood-opacity="0" result="BackgroundImageFix"/>
<feColorMatrix in="SourceAlpha" type="matrix" values="0 0 0 0 0 0 0 0 0 0 0 0 0 0 0 0 0 0 127 0" result="hardAlpha"/>
<feOffset dy="16"/>
<feGaussianBlur stdDeviation="16"/>
<feComposite in2="hardAlpha" operator="out"/>
<feColorMatrix type="matrix" values="0 0 0 0 0.941176 0 0 0 0 0.054902 0 0 0 0 0.054902 0 0 0 0.4 0"/>
<feBlend mode="normal" in2="BackgroundImageFix" result="effect1_dropShadow_1146_12061"/>
<feBlend mode="normal" in="SourceGraphic" in2="effect1_dropShadow_1146_12061" result="shape"/>
</filter>
<filter id="filter2_dd_1146_12061" x="295" y="88" width="44" height="44" filterUnits="userSpaceOnUse" color-interpolation-filters="sRGB">
<feFlood flood-opacity="0" result="BackgroundImageFix"/>
<feColorMatrix in="SourceAlpha" type="matrix" values="0 0 0 0 0 0 0 0 0 0 0 0 0 0 0 0 0 0 127 0" result="hardAlpha"/>
<feOffset dy="4"/>
<feGaussianBlur stdDeviation="8"/>
<feComposite in2="hardAlpha" operator="out"/>
<feColorMatrix type="matrix" values="0 0 0 0 0.0784314 0 0 0 0 0.0784314 0 0 0 0 0.0784314 0 0 0 0.08 0"/>
<feBlend mode="normal" in2="BackgroundImageFix" result="effect1_dropShadow_1146_12061"/>
<feColorMatrix in="SourceAlpha" type="matrix" values="0 0 0 0 0 0 0 0 0 0 0 0 0 0 0 0 0 0 127 0" result="hardAlpha"/>
<feOffset dy="1"/>
<feGaussianBlur stdDeviation="2"/>
<feComposite in2="hardAlpha" operator="out"/>
<feColorMatrix type="matrix" values="0 0 0 0 0.0784314 0 0 0 0 0.0784314 0 0 0 0 0.0784314 0 0 0 0.08 0"/>
<feBlend mode="normal" in2="effect1_dropShadow_1146_12061" result="effect2_dropShadow_1146_12061"/>
<feBlend mode="normal" in="SourceGraphic" in2="effect2_dropShadow_1146_12061" result="shape"/>
</filter>
<clipPath id="clip0_1146_12061">
<rect width="307" height="200" fill="white" transform="translate(28 32.5)"/>
</clipPath>
</defs>
</svg>
