<svg viewBox="0 0 150 22" fill="none" xmlns="http://www.w3.org/2000/svg">
<path d="M11.7114 5.7791C11.7114 6.66932 11.5071 7.48657 11.0985 8.23085C10.6899 8.96053 10.0624 9.55158 9.21592 10.004C8.36949 10.4564 7.31874 10.6826 6.06368 10.6826H3.74328V16.199H0V0.831841H6.06368C7.28955 0.831841 8.32571 1.04345 9.17214 1.46667C10.0186 1.88988 10.6534 2.47363 11.0766 3.21791C11.4998 3.96219 11.7114 4.81592 11.7114 5.7791ZM5.7791 7.70547C6.4942 7.70547 7.02687 7.53764 7.37712 7.20199C7.72736 6.86633 7.90249 6.39204 7.90249 5.7791C7.90249 5.16617 7.72736 4.69187 7.37712 4.35622C7.02687 4.02056 6.4942 3.85274 5.7791 3.85274H3.74328V7.70547H5.7791Z" fill="#141414"/>
<path d="M17.6771 0V16.199H13.9338V0H17.6771Z" fill="#141414"/>
<path d="M19.9192 10.0697C19.9192 8.81459 20.1527 7.71277 20.6197 6.76418C21.1013 5.81559 21.7507 5.0859 22.568 4.57512C23.3852 4.06434 24.2973 3.80895 25.3043 3.80895C26.1653 3.80895 26.9169 3.98408 27.559 4.33433C28.2157 4.68458 28.7192 5.14428 29.0695 5.71343V3.98408H32.8127V16.199H29.0695V14.4697C28.7046 15.0388 28.1938 15.4985 27.5371 15.8488C26.895 16.199 26.1434 16.3741 25.2824 16.3741C24.29 16.3741 23.3852 16.1187 22.568 15.608C21.7507 15.0826 21.1013 14.3456 20.6197 13.397C20.1527 12.4338 19.9192 11.3247 19.9192 10.0697ZM29.0695 10.0915C29.0695 9.15754 28.8068 8.42056 28.2814 7.8806C27.7706 7.34063 27.1431 7.07065 26.3988 7.07065C25.6545 7.07065 25.0197 7.34063 24.4943 7.8806C23.9835 8.40597 23.7282 9.13566 23.7282 10.0697C23.7282 11.0036 23.9835 11.7479 24.4943 12.3025C25.0197 12.8425 25.6545 13.1124 26.3988 13.1124C27.1431 13.1124 27.7706 12.8425 28.2814 12.3025C28.8068 11.7625 29.0695 11.0255 29.0695 10.0915Z" fill="#141414"/>
<path d="M48.2721 3.98408L40.6104 22H36.5825L39.3845 15.7831L34.4154 3.98408H38.5965L41.4203 11.6239L44.2223 3.98408H48.2721Z" fill="#141414"/>
<path d="M67.3023 0.831841V16.199H63.559V6.98308L60.1222 16.199H57.1013L53.6426 6.96119V16.199H49.8993V0.831841H54.3212L58.6337 11.4706L62.9023 0.831841H67.3023Z" fill="#F00E0E"/>
<path d="M69.5235 10.0697C69.5235 8.81459 69.757 7.71277 70.224 6.76418C70.7056 5.81559 71.355 5.0859 72.1723 4.57512C72.9895 4.06434 73.9016 3.80895 74.9086 3.80895C75.7696 3.80895 76.5212 3.98408 77.1633 4.33433C77.82 4.68458 78.3235 5.14428 78.6738 5.71343V3.98408H82.4171V16.199H78.6738V14.4697C78.3089 15.0388 77.7981 15.4985 77.1414 15.8488C76.4993 16.199 75.7477 16.3741 74.8867 16.3741C73.8943 16.3741 72.9895 16.1187 72.1723 15.608C71.355 15.0826 70.7056 14.3456 70.224 13.397C69.757 12.4338 69.5235 11.3247 69.5235 10.0697ZM78.6738 10.0915C78.6738 9.15754 78.4111 8.42056 77.8857 7.8806C77.3749 7.34063 76.7474 7.07065 76.0031 7.07065C75.2589 7.07065 74.624 7.34063 74.0986 7.8806C73.5879 8.40597 73.3325 9.13566 73.3325 10.0697C73.3325 11.0036 73.5879 11.7479 74.0986 12.3025C74.624 12.8425 75.2589 13.1124 76.0031 13.1124C76.7474 13.1124 77.3749 12.8425 77.8857 12.3025C78.4111 11.7625 78.6738 11.0255 78.6738 10.0915Z" fill="#F00E0E"/>
<path d="M92.8635 16.199L89.1421 11.0766V16.199H85.3988V0H89.1421V8.95323L92.8416 3.98408H97.4605L92.3819 10.1134L97.5043 16.199H92.8635Z" fill="#F00E0E"/>
<path d="M110.719 9.89453C110.719 10.2448 110.697 10.6096 110.653 10.9891H102.181C102.24 11.7479 102.481 12.3317 102.904 12.7403C103.342 13.1343 103.874 13.3313 104.502 13.3313C105.436 13.3313 106.085 12.9373 106.45 12.1493H110.434C110.23 12.9519 109.858 13.6743 109.318 14.3164C108.792 14.9585 108.128 15.462 107.326 15.8269C106.523 16.1917 105.626 16.3741 104.633 16.3741C103.437 16.3741 102.371 16.1187 101.437 15.608C100.503 15.0972 99.7735 14.3675 99.2482 13.4189C98.7228 12.4703 98.4601 11.3612 98.4601 10.0915C98.4601 8.82189 98.7155 7.71277 99.2263 6.76418C99.7516 5.81559 100.481 5.0859 101.415 4.57512C102.349 4.06434 103.422 3.80895 104.633 3.80895C105.815 3.80895 106.866 4.05705 107.785 4.55323C108.705 5.04942 109.42 5.75721 109.931 6.67662C110.456 7.59602 110.719 8.66866 110.719 9.89453ZM106.888 8.90945C106.888 8.26733 106.669 7.75655 106.231 7.37711C105.793 6.99768 105.246 6.80796 104.589 6.80796C103.962 6.80796 103.429 6.99038 102.991 7.35522C102.568 7.72007 102.306 8.23814 102.203 8.90945H106.888Z" fill="#F00E0E"/>
<path d="M116.71 6.0199C117.148 5.34859 117.696 4.82322 118.352 4.44378C119.009 4.04975 119.739 3.85274 120.541 3.85274V7.81493H119.512C118.578 7.81493 117.878 8.01924 117.411 8.42786C116.944 8.82189 116.71 9.52239 116.71 10.5294V16.199H112.967V3.98408H116.71V6.0199Z" fill="#F00E0E"/>
<path d="M123.19 16.3085C122.779 16.3085 122.442 16.1899 122.177 15.9527C121.922 15.7065 121.794 15.4055 121.794 15.0498C121.794 14.6849 121.922 14.3794 122.177 14.1331C122.442 13.8868 122.779 13.7637 123.19 13.7637C123.591 13.7637 123.919 13.8868 124.175 14.1331C124.439 14.3794 124.572 14.6849 124.572 15.0498C124.572 15.4055 124.439 15.7065 124.175 15.9527C123.919 16.1899 123.591 16.3085 123.19 16.3085Z" fill="#141414"/>
<path d="M128.57 9.64552C128.798 9.2898 129.112 9.00249 129.514 8.78358C129.915 8.56468 130.385 8.45522 130.923 8.45522C131.552 8.45522 132.122 8.61484 132.633 8.93408C133.144 9.25332 133.545 9.70937 133.837 10.3022C134.138 10.8951 134.289 11.5837 134.289 12.3682C134.289 13.1526 134.138 13.8458 133.837 14.4478C133.545 15.0406 133.144 15.5012 132.633 15.8296C132.122 16.1488 131.552 16.3085 130.923 16.3085C130.394 16.3085 129.924 16.199 129.514 15.9801C129.112 15.7612 128.798 15.4784 128.57 15.1318V19.8383H126.23V8.56468H128.57V9.64552ZM131.908 12.3682C131.908 11.7844 131.744 11.3284 131.415 11C131.096 10.6625 130.699 10.4938 130.225 10.4938C129.76 10.4938 129.363 10.6625 129.035 11C128.716 11.3375 128.556 11.7981 128.556 12.3818C128.556 12.9656 128.716 13.4262 129.035 13.7637C129.363 14.1012 129.76 14.2699 130.225 14.2699C130.69 14.2699 131.087 14.1012 131.415 13.7637C131.744 13.4171 131.908 12.9519 131.908 12.3682Z" fill="#141414"/>
<path d="M138.129 9.83706C138.403 9.41749 138.745 9.08914 139.155 8.85199C139.566 8.60572 140.022 8.48259 140.523 8.48259V10.959H139.88C139.297 10.959 138.859 11.0866 138.567 11.342C138.275 11.5883 138.129 12.0261 138.129 12.6555V16.199H135.79V8.56468H138.129V9.83706Z" fill="#141414"/>
<path d="M145.39 16.3085C144.643 16.3085 143.968 16.1488 143.366 15.8296C142.773 15.5104 142.303 15.0543 141.956 14.4614C141.619 13.8686 141.45 13.1754 141.45 12.3818C141.45 11.5974 141.623 10.9088 141.97 10.3159C142.317 9.71393 142.791 9.25332 143.393 8.93408C143.995 8.61484 144.67 8.45522 145.418 8.45522C146.166 8.45522 146.841 8.61484 147.443 8.93408C148.045 9.25332 148.519 9.71393 148.866 10.3159C149.212 10.9088 149.386 11.5974 149.386 12.3818C149.386 13.1663 149.208 13.8595 148.852 14.4614C148.505 15.0543 148.026 15.5104 147.415 15.8296C146.813 16.1488 146.138 16.3085 145.39 16.3085ZM145.39 14.2836C145.837 14.2836 146.216 14.1194 146.526 13.791C146.845 13.4627 147.005 12.993 147.005 12.3818C147.005 11.7707 146.85 11.301 146.54 10.9726C146.239 10.6443 145.865 10.4801 145.418 10.4801C144.962 10.4801 144.583 10.6443 144.282 10.9726C143.981 11.2919 143.831 11.7616 143.831 12.3818C143.831 12.993 143.977 13.4627 144.269 13.791C144.57 14.1194 144.944 14.2836 145.39 14.2836Z" fill="#141414"/>
</svg>
