<svg  viewBox="0 0 712 288" fill="none" xmlns="http://www.w3.org/2000/svg">
<path d="M3.88636 54.6193C3.49716 54.6136 3.11364 54.5426 2.7358 54.4062C2.3608 54.2699 2.01989 54.0426 1.71307 53.7244C1.40625 53.4062 1.16051 52.9787 0.975852 52.4418C0.794034 51.9048 0.703125 51.2344 0.703125 50.4304C0.703125 49.669 0.778409 48.9929 0.928977 48.402C1.08239 47.8111 1.30256 47.3125 1.58949 46.9062C1.87642 46.4972 2.22301 46.1861 2.62926 45.973C3.03551 45.7599 3.49148 45.6534 3.99716 45.6534C4.51705 45.6534 4.97869 45.7557 5.3821 45.9602C5.78551 46.1648 6.11222 46.4474 6.36222 46.8082C6.61506 47.169 6.77557 47.5795 6.84375 48.0398H5.54403C5.45597 47.6761 5.28125 47.3793 5.01989 47.1491C4.75852 46.919 4.41761 46.804 3.99716 46.804C3.35795 46.804 2.85938 47.0824 2.50142 47.6392C2.14631 48.196 1.96733 48.9702 1.96449 49.9616H2.02841C2.17898 49.7145 2.36364 49.5043 2.58239 49.331C2.80398 49.1548 3.05114 49.0199 3.32386 48.9261C3.59943 48.8295 3.8892 48.7812 4.19318 48.7812C4.69886 48.7812 5.15625 48.9048 5.56534 49.152C5.97727 49.3963 6.3054 49.7344 6.54972 50.1662C6.79403 50.598 6.91619 51.0923 6.91619 51.6491C6.91619 52.206 6.78977 52.7102 6.53693 53.1619C6.28693 53.6136 5.93466 53.9716 5.48011 54.2358C5.02557 54.4972 4.49432 54.625 3.88636 54.6193ZM3.8821 53.5114C4.21733 53.5114 4.51705 53.429 4.78125 53.2642C5.04545 53.0994 5.25426 52.8778 5.40767 52.5994C5.56108 52.321 5.63778 52.0099 5.63778 51.6662C5.63778 51.331 5.5625 51.0256 5.41193 50.75C5.2642 50.4744 5.05966 50.2557 4.7983 50.0938C4.53977 49.9318 4.24432 49.8509 3.91193 49.8509C3.65909 49.8509 3.42472 49.8991 3.20881 49.9957C2.99574 50.0923 2.80824 50.2259 2.64631 50.3963C2.48438 50.5668 2.35653 50.7628 2.26278 50.9844C2.17188 51.2031 2.12642 51.4347 2.12642 51.679C2.12642 52.0057 2.2017 52.3082 2.35227 52.5866C2.50568 52.8651 2.71449 53.0895 2.97869 53.2599C3.24574 53.4276 3.54688 53.5114 3.8821 53.5114ZM8.38516 52.7955V51.7301L12.1565 45.7727H12.996V47.3409H12.4633L9.76584 51.6108V51.679H14.9349V52.7955H8.38516ZM12.5229 54.5V52.4716L12.5315 51.9858V45.7727H13.78V54.5H12.5229Z" fill="#131314" fill-opacity="0.48"/>
<rect width="664" height="1" transform="translate(28 50)" fill="#EBEDF0"/>
<path d="M3.88636 122.286C3.49716 122.28 3.11364 122.209 2.7358 122.073C2.3608 121.937 2.01989 121.709 1.71307 121.391C1.40625 121.073 1.16051 120.645 0.975852 120.109C0.794034 119.572 0.703125 118.901 0.703125 118.097C0.703125 117.336 0.778409 116.66 0.928977 116.069C1.08239 115.478 1.30256 114.979 1.58949 114.573C1.87642 114.164 2.22301 113.853 2.62926 113.64C3.03551 113.427 3.49148 113.32 3.99716 113.32C4.51705 113.32 4.97869 113.422 5.3821 113.627C5.78551 113.832 6.11222 114.114 6.36222 114.475C6.61506 114.836 6.77557 115.246 6.84375 115.707H5.54403C5.45597 115.343 5.28125 115.046 5.01989 114.816C4.75852 114.586 4.41761 114.471 3.99716 114.471C3.35795 114.471 2.85938 114.749 2.50142 115.306C2.14631 115.863 1.96733 116.637 1.96449 117.628H2.02841C2.17898 117.381 2.36364 117.171 2.58239 116.998C2.80398 116.822 3.05114 116.687 3.32386 116.593C3.59943 116.496 3.8892 116.448 4.19318 116.448C4.69886 116.448 5.15625 116.572 5.56534 116.819C5.97727 117.063 6.3054 117.401 6.54972 117.833C6.79403 118.265 6.91619 118.759 6.91619 119.316C6.91619 119.873 6.78977 120.377 6.53693 120.829C6.28693 121.28 5.93466 121.638 5.48011 121.903C5.02557 122.164 4.49432 122.292 3.88636 122.286ZM3.8821 121.178C4.21733 121.178 4.51705 121.096 4.78125 120.931C5.04545 120.766 5.25426 120.545 5.40767 120.266C5.56108 119.988 5.63778 119.677 5.63778 119.333C5.63778 118.998 5.5625 118.692 5.41193 118.417C5.2642 118.141 5.05966 117.922 4.7983 117.76C4.53977 117.599 4.24432 117.518 3.91193 117.518C3.65909 117.518 3.42472 117.566 3.20881 117.662C2.99574 117.759 2.80824 117.893 2.64631 118.063C2.48438 118.234 2.35653 118.43 2.26278 118.651C2.17188 118.87 2.12642 119.101 2.12642 119.346C2.12642 119.672 2.2017 119.975 2.35227 120.253C2.50568 120.532 2.71449 120.756 2.97869 120.927C3.24574 121.094 3.54688 121.178 3.8821 121.178ZM11.6067 122.286C11.0215 122.286 10.4988 122.185 10.0386 121.984C9.58118 121.782 9.21896 121.502 8.95192 121.144C8.68771 120.783 8.54567 120.366 8.52578 119.891H9.86385C9.88089 120.15 9.96754 120.374 10.1238 120.564C10.2829 120.752 10.4903 120.897 10.746 120.999C11.0016 121.101 11.2857 121.153 11.5982 121.153C11.942 121.153 12.246 121.093 12.5102 120.974C12.7772 120.854 12.986 120.688 13.1366 120.475C13.2871 120.259 13.3624 120.01 13.3624 119.729C13.3624 119.437 13.2871 119.18 13.1366 118.958C12.9888 118.734 12.7715 118.557 12.4846 118.43C12.2005 118.302 11.8567 118.238 11.4533 118.238H10.7161V117.164H11.4533C11.7772 117.164 12.0613 117.106 12.3056 116.989C12.5528 116.873 12.746 116.711 12.8852 116.503C13.0244 116.293 13.094 116.047 13.094 115.766C13.094 115.496 13.0329 115.262 12.9107 115.063C12.7914 114.861 12.621 114.704 12.3994 114.59C12.1806 114.476 11.9221 114.42 11.6238 114.42C11.3397 114.42 11.0741 114.472 10.8269 114.577C10.5826 114.68 10.3837 114.827 10.2303 115.02C10.0769 115.211 9.99453 115.439 9.98317 115.707H8.70902C8.72322 115.235 8.86243 114.82 9.12663 114.462C9.39368 114.104 9.74595 113.824 10.1835 113.623C10.621 113.421 11.1067 113.32 11.6408 113.32C12.2005 113.32 12.6835 113.43 13.0897 113.648C13.4988 113.864 13.8141 114.153 14.0357 114.513C14.2602 114.874 14.371 115.269 14.3681 115.698C14.371 116.187 14.2346 116.601 13.959 116.942C13.6863 117.283 13.3227 117.512 12.8681 117.628V117.697C13.4477 117.785 13.8965 118.015 14.2147 118.387C14.5357 118.759 14.6948 119.221 14.692 119.772C14.6948 120.252 14.5613 120.682 14.2914 121.063C14.0244 121.444 13.6593 121.743 13.1962 121.962C12.7332 122.178 12.2033 122.286 11.6067 122.286Z" fill="#131314" fill-opacity="0.48"/>
<rect width="664" height="1" transform="translate(28 117.667)" fill="#EBEDF0"/>
<path d="M3.88636 189.953C3.49716 189.947 3.11364 189.876 2.7358 189.74C2.3608 189.603 2.01989 189.376 1.71307 189.058C1.40625 188.74 1.16051 188.312 0.975852 187.775C0.794034 187.238 0.703125 186.568 0.703125 185.764C0.703125 185.003 0.778409 184.326 0.928977 183.735C1.08239 183.145 1.30256 182.646 1.58949 182.24C1.87642 181.831 2.22301 181.52 2.62926 181.307C3.03551 181.093 3.49148 180.987 3.99716 180.987C4.51705 180.987 4.97869 181.089 5.3821 181.294C5.78551 181.498 6.11222 181.781 6.36222 182.142C6.61506 182.503 6.77557 182.913 6.84375 183.373H5.54403C5.45597 183.01 5.28125 182.713 5.01989 182.483C4.75852 182.253 4.41761 182.137 3.99716 182.137C3.35795 182.137 2.85938 182.416 2.50142 182.973C2.14631 183.53 1.96733 184.304 1.96449 185.295H2.02841C2.17898 185.048 2.36364 184.838 2.58239 184.664C2.80398 184.488 3.05114 184.353 3.32386 184.26C3.59943 184.163 3.8892 184.115 4.19318 184.115C4.69886 184.115 5.15625 184.238 5.56534 184.485C5.97727 184.73 6.3054 185.068 6.54972 185.5C6.79403 185.932 6.91619 186.426 6.91619 186.983C6.91619 187.539 6.78977 188.044 6.53693 188.495C6.28693 188.947 5.93466 189.305 5.48011 189.569C5.02557 189.831 4.49432 189.958 3.88636 189.953ZM3.8821 188.845C4.21733 188.845 4.51705 188.762 4.78125 188.598C5.04545 188.433 5.25426 188.211 5.40767 187.933C5.56108 187.655 5.63778 187.343 5.63778 187C5.63778 186.664 5.5625 186.359 5.41193 186.083C5.2642 185.808 5.05966 185.589 4.7983 185.427C4.53977 185.265 4.24432 185.184 3.91193 185.184C3.65909 185.184 3.42472 185.233 3.20881 185.329C2.99574 185.426 2.80824 185.559 2.64631 185.73C2.48438 185.9 2.35653 186.096 2.26278 186.318C2.17188 186.537 2.12642 186.768 2.12642 187.012C2.12642 187.339 2.2017 187.642 2.35227 187.92C2.50568 188.199 2.71449 188.423 2.97869 188.593C3.24574 188.761 3.54688 188.845 3.8821 188.845ZM8.56839 189.833V188.879L11.5215 185.819C11.8369 185.487 12.0968 185.196 12.3013 184.946C12.5087 184.693 12.6636 184.453 12.7658 184.226C12.8681 183.998 12.9192 183.757 12.9192 183.501C12.9192 183.211 12.8511 182.961 12.7147 182.751C12.5783 182.538 12.3923 182.375 12.1565 182.261C11.9207 182.145 11.655 182.086 11.3596 182.086C11.0471 182.086 10.7744 182.15 10.5414 182.278C10.3085 182.406 10.1295 182.586 10.0045 182.819C9.87947 183.052 9.81697 183.325 9.81697 183.637H8.55987C8.55987 183.106 8.68203 182.642 8.92635 182.244C9.17067 181.846 9.50589 181.538 9.93203 181.319C10.3582 181.098 10.8425 180.987 11.3852 180.987C11.9335 180.987 12.4164 181.096 12.834 181.315C13.2545 181.531 13.5826 181.826 13.8184 182.201C14.0542 182.574 14.1721 182.994 14.1721 183.463C14.1721 183.787 14.111 184.103 13.9888 184.413C13.8695 184.723 13.6607 185.068 13.3624 185.449C13.0641 185.826 12.6494 186.285 12.1181 186.825L10.3837 188.64V188.704H14.3127V189.833H8.56839Z" fill="#131314" fill-opacity="0.48"/>
<rect width="664" height="1" transform="translate(28 185.333)" fill="#EBEDF0"/>
<path d="M3.88636 257.619C3.49716 257.614 3.11364 257.543 2.7358 257.406C2.3608 257.27 2.01989 257.043 1.71307 256.724C1.40625 256.406 1.16051 255.979 0.975852 255.442C0.794034 254.905 0.703125 254.234 0.703125 253.43C0.703125 252.669 0.778409 251.993 0.928977 251.402C1.08239 250.811 1.30256 250.312 1.58949 249.906C1.87642 249.497 2.22301 249.186 2.62926 248.973C3.03551 248.76 3.49148 248.653 3.99716 248.653C4.51705 248.653 4.97869 248.756 5.3821 248.96C5.78551 249.165 6.11222 249.447 6.36222 249.808C6.61506 250.169 6.77557 250.58 6.84375 251.04H5.54403C5.45597 250.676 5.28125 250.379 5.01989 250.149C4.75852 249.919 4.41761 249.804 3.99716 249.804C3.35795 249.804 2.85938 250.082 2.50142 250.639C2.14631 251.196 1.96733 251.97 1.96449 252.962H2.02841C2.17898 252.714 2.36364 252.504 2.58239 252.331C2.80398 252.155 3.05114 252.02 3.32386 251.926C3.59943 251.83 3.8892 251.781 4.19318 251.781C4.69886 251.781 5.15625 251.905 5.56534 252.152C5.97727 252.396 6.3054 252.734 6.54972 253.166C6.79403 253.598 6.91619 254.092 6.91619 254.649C6.91619 255.206 6.78977 255.71 6.53693 256.162C6.28693 256.614 5.93466 256.972 5.48011 257.236C5.02557 257.497 4.49432 257.625 3.88636 257.619ZM3.8821 256.511C4.21733 256.511 4.51705 256.429 4.78125 256.264C5.04545 256.099 5.25426 255.878 5.40767 255.599C5.56108 255.321 5.63778 255.01 5.63778 254.666C5.63778 254.331 5.5625 254.026 5.41193 253.75C5.2642 253.474 5.05966 253.256 4.7983 253.094C4.53977 252.932 4.24432 252.851 3.91193 252.851C3.65909 252.851 3.42472 252.899 3.20881 252.996C2.99574 253.092 2.80824 253.226 2.64631 253.396C2.48438 253.567 2.35653 253.763 2.26278 253.984C2.17188 254.203 2.12642 254.435 2.12642 254.679C2.12642 255.006 2.2017 255.308 2.35227 255.587C2.50568 255.865 2.71449 256.089 2.97869 256.26C3.24574 256.428 3.54688 256.511 3.8821 256.511ZM11.8795 248.773V257.5H10.5585V250.094H10.5073L8.41925 251.457V250.196L10.5968 248.773H11.8795Z" fill="#131314" fill-opacity="0.48"/>
<rect width="664" height="1" transform="translate(28 253)" fill="#EBEDF0"/>
<path d="M46 221.214L170.979 254L291.66 221.214H420.936L545.915 220.913L672 186" stroke="#898A8F" stroke-width="2" stroke-linecap="square"/>
<g filter="url(#filter0_d_237_3848)">
<path d="M46 184L170.979 145.659L291.66 184L420.936 75L545.915 157.762L672 105.059" stroke="#F00E0E" stroke-width="3" stroke-linecap="square"/>
</g>
<line x1="672.5" y1="32" x2="672.5" y2="272" stroke="#C1C2C7" stroke-dasharray="3 4"/>
<path d="M649.872 11V10.2045L652.333 7.65483C652.595 7.37784 652.812 7.13518 652.982 6.92685C653.155 6.71615 653.284 6.5161 653.37 6.3267C653.455 6.13731 653.497 5.93608 653.497 5.72301C653.497 5.48153 653.441 5.2732 653.327 5.09801C653.213 4.92045 653.058 4.78433 652.862 4.68963C652.665 4.59257 652.444 4.54403 652.198 4.54403C651.937 4.54403 651.71 4.5973 651.516 4.70384C651.322 4.81037 651.173 4.9607 651.068 5.15483C650.964 5.34896 650.912 5.57623 650.912 5.83665H649.865C649.865 5.39394 649.966 5.00687 650.17 4.67543C650.374 4.34399 650.653 4.08712 651.008 3.90483C651.363 3.72017 651.767 3.62784 652.219 3.62784C652.676 3.62784 653.078 3.71899 653.426 3.90128C653.777 4.0812 654.05 4.32741 654.247 4.63991C654.443 4.95005 654.541 5.30043 654.541 5.69105C654.541 5.96094 654.49 6.22491 654.389 6.48295C654.289 6.741 654.115 7.02865 653.867 7.34588C653.618 7.66075 653.272 8.04309 652.83 8.4929L651.384 10.0057V10.0589H654.659V11H649.872ZM658.636 11.1207C658.075 11.1184 657.596 10.9704 657.198 10.6768C656.8 10.3833 656.496 9.95597 656.286 9.39489C656.075 8.83381 655.97 8.15791 655.97 7.36719C655.97 6.57884 656.075 5.9053 656.286 5.34659C656.499 4.78788 656.804 4.36174 657.202 4.06818C657.602 3.77462 658.08 3.62784 658.636 3.62784C659.193 3.62784 659.67 3.7758 660.068 4.07173C660.465 4.36529 660.769 4.79143 660.98 5.35014C661.193 5.90649 661.3 6.57884 661.3 7.36719C661.3 8.16027 661.194 8.83736 660.984 9.39844C660.773 9.95715 660.469 10.3845 660.071 10.6804C659.673 10.974 659.195 11.1207 658.636 11.1207ZM658.636 10.1726C659.129 10.1726 659.514 9.93229 659.791 9.4517C660.07 8.97112 660.21 8.27628 660.21 7.36719C660.21 6.76349 660.146 6.25331 660.018 5.83665C659.892 5.41761 659.711 5.10038 659.474 4.88494C659.24 4.66714 658.961 4.55824 658.636 4.55824C658.146 4.55824 657.762 4.79972 657.482 5.28267C657.203 5.76562 657.062 6.46046 657.06 7.36719C657.06 7.97325 657.122 8.4858 657.248 8.90483C657.376 9.3215 657.557 9.63755 657.791 9.85298C658.026 10.0661 658.307 10.1726 658.636 10.1726ZM666.482 3.72727V11H665.42V3.72727H666.482ZM671.466 8.73793V5.54545H672.531V11H671.487V10.0554H671.43C671.305 10.3466 671.103 10.5893 670.827 10.7834C670.552 10.9751 670.21 11.071 669.8 11.071C669.45 11.071 669.14 10.9941 668.87 10.8402C668.602 10.6839 668.392 10.4531 668.238 10.1477C668.086 9.84233 668.01 9.46473 668.01 9.01491V5.54545H669.072V8.88707C669.072 9.25876 669.175 9.55469 669.381 9.77486C669.587 9.99503 669.855 10.1051 670.184 10.1051C670.383 10.1051 670.58 10.0554 670.777 9.95597C670.976 9.85653 671.14 9.7062 671.27 9.50497C671.403 9.30374 671.468 9.04806 671.466 8.73793ZM676.604 5.54545V6.39773H673.624V5.54545H676.604ZM674.423 4.23864H675.485V9.39844C675.485 9.6044 675.516 9.75947 675.578 9.86364C675.639 9.96544 675.718 10.0353 675.816 10.0732C675.915 10.1087 676.023 10.1264 676.139 10.1264C676.224 10.1264 676.298 10.1205 676.362 10.1087C676.426 10.0968 676.476 10.0874 676.512 10.0803L676.703 10.9574C676.642 10.9811 676.554 11.0047 676.441 11.0284C676.327 11.0545 676.185 11.0687 676.014 11.071C675.735 11.0758 675.475 11.026 675.233 10.9219C674.992 10.8177 674.796 10.6567 674.647 10.4389C674.498 10.2211 674.423 9.94768 674.423 9.61861V4.23864ZM680.415 6V5.31818C680.415 5.11695 680.453 4.90507 680.529 4.68253C680.605 4.45999 680.71 4.24692 680.845 4.04332C680.98 3.83973 681.139 3.66572 681.321 3.52131L681.847 3.89773C681.702 4.10843 681.579 4.3286 681.477 4.55824C681.375 4.78788 681.324 5.03764 681.324 5.30753V6H680.415ZM682.849 11V10.2045L685.31 7.65483C685.573 7.37784 685.79 7.13518 685.96 6.92685C686.133 6.71615 686.262 6.5161 686.347 6.3267C686.432 6.13731 686.475 5.93608 686.475 5.72301C686.475 5.48153 686.418 5.2732 686.305 5.09801C686.191 4.92045 686.036 4.78433 685.839 4.68963C685.643 4.59257 685.422 4.54403 685.175 4.54403C684.915 4.54403 684.688 4.5973 684.494 4.70384C684.299 4.81037 684.15 4.9607 684.046 5.15483C683.942 5.34896 683.89 5.57623 683.89 5.83665H682.842C682.842 5.39394 682.944 5.00687 683.148 4.67543C683.351 4.34399 683.631 4.08712 683.986 3.90483C684.341 3.72017 684.745 3.62784 685.197 3.62784C685.654 3.62784 686.056 3.71899 686.404 3.90128C686.754 4.0812 687.028 4.32741 687.224 4.63991C687.421 4.95005 687.519 5.30043 687.519 5.69105C687.519 5.96094 687.468 6.22491 687.366 6.48295C687.267 6.741 687.093 7.02865 686.844 7.34588C686.596 7.66075 686.25 8.04309 685.807 8.4929L684.362 10.0057V10.0589H687.636V11H682.849ZM691.614 11.0994C691.126 11.0994 690.691 11.0154 690.307 10.8473C689.926 10.6792 689.624 10.446 689.402 10.1477C689.182 9.84706 689.063 9.49905 689.047 9.10369H690.162C690.176 9.31913 690.248 9.50616 690.378 9.66477C690.511 9.82102 690.684 9.94176 690.897 10.027C691.11 10.1122 691.347 10.1548 691.607 10.1548C691.894 10.1548 692.147 10.1051 692.367 10.0057C692.59 9.90625 692.764 9.76776 692.889 9.5902C693.014 9.41027 693.077 9.20312 693.077 8.96875C693.077 8.72491 693.014 8.51065 692.889 8.32599C692.766 8.13897 692.585 7.99219 692.346 7.88565C692.109 7.77912 691.822 7.72585 691.486 7.72585H690.872V6.83097H691.486C691.756 6.83097 691.993 6.78243 692.197 6.68537C692.403 6.5883 692.563 6.45336 692.679 6.28054C692.795 6.10535 692.853 5.90057 692.853 5.66619C692.853 5.44129 692.803 5.24598 692.701 5.08026C692.601 4.91217 692.459 4.78078 692.275 4.68608C692.092 4.59138 691.877 4.54403 691.628 4.54403C691.392 4.54403 691.17 4.58783 690.964 4.67543C690.761 4.76065 690.595 4.88376 690.467 5.04474C690.339 5.20336 690.271 5.39394 690.261 5.61648H689.199C689.211 5.22348 689.327 4.87784 689.547 4.57955C689.77 4.28125 690.063 4.04806 690.428 3.87997C690.793 3.71188 691.197 3.62784 691.643 3.62784C692.109 3.62784 692.511 3.71899 692.85 3.90128C693.191 4.0812 693.454 4.3215 693.638 4.62216C693.825 4.92282 693.918 5.25189 693.915 5.60938C693.918 6.01657 693.804 6.36222 693.574 6.64631C693.347 6.9304 693.044 7.12098 692.665 7.21804V7.27486C693.148 7.34825 693.522 7.54001 693.787 7.85014C694.055 8.16027 694.188 8.54498 694.185 9.00426C694.188 9.40436 694.076 9.76302 693.851 10.0803C693.629 10.3975 693.325 10.6473 692.939 10.8295C692.553 11.0095 692.111 11.0994 691.614 11.0994Z" fill="#131314" fill-opacity="0.48"/>
<rect width="32" height="24" transform="translate(656 19)" fill="#F00E0E"/>
<path d="M668.091 35.1193C667.642 35.1165 667.209 35.0412 666.791 34.8935C666.376 34.7457 666.004 34.5057 665.675 34.1733C665.345 33.8409 665.084 33.4006 664.891 32.8523C664.7 32.304 664.605 31.6307 664.605 30.8324C664.608 30.0994 664.692 29.4446 664.856 28.8679C665.024 28.2884 665.263 27.7969 665.572 27.3935C665.885 26.9901 666.258 26.6832 666.693 26.473C667.128 26.2599 667.615 26.1534 668.155 26.1534C668.737 26.1534 669.251 26.267 669.697 26.4943C670.143 26.7187 670.501 27.0241 670.771 27.4105C671.044 27.7969 671.209 28.2301 671.266 28.7102H669.446C669.375 28.4062 669.226 28.1676 668.998 27.9943C668.771 27.821 668.49 27.7344 668.155 27.7344C667.587 27.7344 667.155 27.9815 666.859 28.4759C666.567 28.9702 666.418 29.642 666.412 30.4915H666.471C666.602 30.233 666.778 30.0128 667 29.831C667.224 29.6463 667.479 29.5057 667.763 29.4091C668.05 29.3097 668.352 29.2599 668.67 29.2599C669.187 29.2599 669.648 29.3821 670.051 29.6264C670.454 29.8679 670.773 30.2003 671.006 30.6236C671.239 31.0469 671.355 31.5312 671.355 32.0767C671.355 32.6676 671.217 33.1932 670.942 33.6534C670.669 34.1136 670.287 34.4744 669.795 34.7358C669.307 34.9943 668.739 35.1222 668.091 35.1193ZM668.082 33.6705C668.366 33.6705 668.621 33.6023 668.845 33.4659C669.069 33.3295 669.246 33.1449 669.373 32.9119C669.501 32.679 669.565 32.4176 669.565 32.1278C669.565 31.8381 669.501 31.5781 669.373 31.348C669.248 31.1179 669.075 30.9347 668.854 30.7983C668.632 30.6619 668.379 30.5938 668.095 30.5938C667.882 30.5938 667.685 30.6335 667.503 30.7131C667.324 30.7926 667.166 30.9034 667.03 31.0455C666.896 31.1875 666.791 31.3523 666.714 31.5398C666.638 31.7244 666.599 31.9219 666.599 32.1321C666.599 32.4134 666.663 32.6705 666.791 32.9034C666.922 33.1364 667.098 33.3224 667.319 33.4616C667.544 33.6009 667.798 33.6705 668.082 33.6705ZM675.989 35.1193C675.353 35.1193 674.786 35.0099 674.289 34.7912C673.794 34.5696 673.404 34.2656 673.117 33.8793C672.833 33.4901 672.687 33.0412 672.678 32.5327H674.536C674.547 32.7457 674.617 32.9332 674.745 33.0952C674.875 33.2543 675.049 33.3778 675.265 33.4659C675.481 33.554 675.723 33.598 675.993 33.598C676.275 33.598 676.523 33.5483 676.739 33.4489C676.955 33.3494 677.124 33.2116 677.246 33.0355C677.368 32.8594 677.429 32.6562 677.429 32.4261C677.429 32.1932 677.364 31.9872 677.233 31.8082C677.106 31.6264 676.921 31.4844 676.679 31.3821C676.441 31.2798 676.157 31.2287 675.827 31.2287H675.013V29.8736H675.827C676.106 29.8736 676.351 29.8253 676.564 29.7287C676.78 29.6321 676.948 29.4986 677.067 29.3281C677.187 29.1548 677.246 28.9531 677.246 28.723C677.246 28.5043 677.194 28.3125 677.089 28.1477C676.986 27.9801 676.841 27.8494 676.654 27.7557C676.469 27.6619 676.253 27.6151 676.006 27.6151C675.756 27.6151 675.527 27.6605 675.32 27.7514C675.113 27.8395 674.946 27.9659 674.821 28.1307C674.696 28.2955 674.63 28.4886 674.621 28.7102H672.853C672.861 28.2074 673.005 27.7642 673.283 27.3807C673.562 26.9972 673.937 26.6974 674.408 26.4815C674.883 26.2628 675.418 26.1534 676.015 26.1534C676.617 26.1534 677.144 26.2628 677.596 26.4815C678.047 26.7003 678.398 26.9957 678.648 27.3679C678.901 27.7372 679.026 28.152 679.023 28.6122C679.026 29.1009 678.874 29.5085 678.567 29.8352C678.263 30.1619 677.867 30.3693 677.378 30.4574V30.5256C678.02 30.608 678.509 30.831 678.844 31.1946C679.182 31.5554 679.35 32.0071 679.347 32.5497C679.35 33.0469 679.206 33.4886 678.917 33.875C678.63 34.2614 678.233 34.5653 677.728 34.7869C677.222 35.0085 676.643 35.1193 675.989 35.1193Z" fill="white"/>
<g filter="url(#filter1_dd_237_3848)">
<circle cx="673" cy="105" r="6" fill="#F00E0E"/>
</g>
<g filter="url(#filter2_dd_237_3848)">
<circle cx="673" cy="186" r="6" fill="#898A8F"/>
</g>
<rect width="32" height="24" transform="translate(656 264)" fill="#EBEDF0"/>
<path d="M668.267 280.119C667.818 280.116 667.384 280.041 666.967 279.893C666.552 279.746 666.18 279.506 665.85 279.173C665.521 278.841 665.259 278.401 665.066 277.852C664.876 277.304 664.781 276.631 664.781 275.832C664.784 275.099 664.867 274.445 665.032 273.868C665.2 273.288 665.438 272.797 665.748 272.393C666.061 271.99 666.434 271.683 666.869 271.473C667.304 271.26 667.791 271.153 668.331 271.153C668.913 271.153 669.427 271.267 669.873 271.494C670.319 271.719 670.677 272.024 670.947 272.411C671.22 272.797 671.384 273.23 671.441 273.71H669.622C669.551 273.406 669.402 273.168 669.174 272.994C668.947 272.821 668.666 272.734 668.331 272.734C667.762 272.734 667.331 272.982 667.035 273.476C666.742 273.97 666.593 274.642 666.588 275.491H666.647C666.778 275.233 666.954 275.013 667.176 274.831C667.4 274.646 667.654 274.506 667.938 274.409C668.225 274.31 668.528 274.26 668.846 274.26C669.363 274.26 669.823 274.382 670.227 274.626C670.63 274.868 670.948 275.2 671.181 275.624C671.414 276.047 671.531 276.531 671.531 277.077C671.531 277.668 671.393 278.193 671.117 278.653C670.845 279.114 670.463 279.474 669.971 279.736C669.482 279.994 668.914 280.122 668.267 280.119ZM668.258 278.67C668.542 278.67 668.796 278.602 669.021 278.466C669.245 278.33 669.421 278.145 669.549 277.912C669.677 277.679 669.741 277.418 669.741 277.128C669.741 276.838 669.677 276.578 669.549 276.348C669.424 276.118 669.251 275.935 669.029 275.798C668.808 275.662 668.555 275.594 668.271 275.594C668.058 275.594 667.86 275.634 667.679 275.713C667.5 275.793 667.342 275.903 667.206 276.045C667.072 276.187 666.967 276.352 666.89 276.54C666.813 276.724 666.775 276.922 666.775 277.132C666.775 277.413 666.839 277.67 666.967 277.903C667.098 278.136 667.274 278.322 667.495 278.462C667.72 278.601 667.974 278.67 668.258 278.67ZM672.939 280V278.67L676.046 275.794C676.31 275.538 676.531 275.308 676.71 275.104C676.892 274.899 677.03 274.699 677.124 274.503C677.217 274.304 677.264 274.089 677.264 273.859C677.264 273.604 677.206 273.384 677.09 273.199C676.973 273.011 676.814 272.868 676.612 272.768C676.411 272.666 676.182 272.615 675.926 272.615C675.659 272.615 675.426 272.669 675.227 272.777C675.029 272.885 674.875 273.04 674.767 273.241C674.659 273.443 674.605 273.683 674.605 273.962H672.854C672.854 273.391 672.983 272.895 673.242 272.474C673.5 272.054 673.862 271.729 674.328 271.499C674.794 271.268 675.331 271.153 675.939 271.153C676.564 271.153 677.108 271.264 677.571 271.486C678.037 271.705 678.399 272.009 678.658 272.398C678.916 272.787 679.046 273.233 679.046 273.736C679.046 274.065 678.98 274.391 678.85 274.712C678.722 275.033 678.493 275.389 678.163 275.781C677.834 276.17 677.369 276.638 676.77 277.183L675.496 278.432V278.491H679.161V280H672.939Z" fill="#131314"/>
<defs>
<filter id="filter0_d_237_3848" x="12.126" y="57.1292" width="693.836" height="176.745" filterUnits="userSpaceOnUse" color-interpolation-filters="sRGB">
<feFlood flood-opacity="0" result="BackgroundImageFix"/>
<feColorMatrix in="SourceAlpha" type="matrix" values="0 0 0 0 0 0 0 0 0 0 0 0 0 0 0 0 0 0 127 0" result="hardAlpha"/>
<feOffset dy="16"/>
<feGaussianBlur stdDeviation="16"/>
<feComposite in2="hardAlpha" operator="out"/>
<feColorMatrix type="matrix" values="0 0 0 0 0.941176 0 0 0 0 0.054902 0 0 0 0 0.054902 0 0 0 0.4 0"/>
<feBlend mode="normal" in2="BackgroundImageFix" result="effect1_dropShadow_237_3848"/>
<feBlend mode="normal" in="SourceGraphic" in2="effect1_dropShadow_237_3848" result="shape"/>
</filter>
<filter id="filter1_dd_237_3848" x="651" y="87" width="44" height="44" filterUnits="userSpaceOnUse" color-interpolation-filters="sRGB">
<feFlood flood-opacity="0" result="BackgroundImageFix"/>
<feColorMatrix in="SourceAlpha" type="matrix" values="0 0 0 0 0 0 0 0 0 0 0 0 0 0 0 0 0 0 127 0" result="hardAlpha"/>
<feOffset dy="4"/>
<feGaussianBlur stdDeviation="8"/>
<feComposite in2="hardAlpha" operator="out"/>
<feColorMatrix type="matrix" values="0 0 0 0 0.0745098 0 0 0 0 0.0745098 0 0 0 0 0.0784314 0 0 0 0.08 0"/>
<feBlend mode="normal" in2="BackgroundImageFix" result="effect1_dropShadow_237_3848"/>
<feColorMatrix in="SourceAlpha" type="matrix" values="0 0 0 0 0 0 0 0 0 0 0 0 0 0 0 0 0 0 127 0" result="hardAlpha"/>
<feOffset dy="1"/>
<feGaussianBlur stdDeviation="2"/>
<feComposite in2="hardAlpha" operator="out"/>
<feColorMatrix type="matrix" values="0 0 0 0 0.0745098 0 0 0 0 0.0745098 0 0 0 0 0.0784314 0 0 0 0.08 0"/>
<feBlend mode="normal" in2="effect1_dropShadow_237_3848" result="effect2_dropShadow_237_3848"/>
<feBlend mode="normal" in="SourceGraphic" in2="effect2_dropShadow_237_3848" result="shape"/>
</filter>
<filter id="filter2_dd_237_3848" x="651" y="168" width="44" height="44" filterUnits="userSpaceOnUse" color-interpolation-filters="sRGB">
<feFlood flood-opacity="0" result="BackgroundImageFix"/>
<feColorMatrix in="SourceAlpha" type="matrix" values="0 0 0 0 0 0 0 0 0 0 0 0 0 0 0 0 0 0 127 0" result="hardAlpha"/>
<feOffset dy="4"/>
<feGaussianBlur stdDeviation="8"/>
<feComposite in2="hardAlpha" operator="out"/>
<feColorMatrix type="matrix" values="0 0 0 0 0.0745098 0 0 0 0 0.0745098 0 0 0 0 0.0784314 0 0 0 0.08 0"/>
<feBlend mode="normal" in2="BackgroundImageFix" result="effect1_dropShadow_237_3848"/>
<feColorMatrix in="SourceAlpha" type="matrix" values="0 0 0 0 0 0 0 0 0 0 0 0 0 0 0 0 0 0 127 0" result="hardAlpha"/>
<feOffset dy="1"/>
<feGaussianBlur stdDeviation="2"/>
<feComposite in2="hardAlpha" operator="out"/>
<feColorMatrix type="matrix" values="0 0 0 0 0.0745098 0 0 0 0 0.0745098 0 0 0 0 0.0784314 0 0 0 0.08 0"/>
<feBlend mode="normal" in2="effect1_dropShadow_237_3848" result="effect2_dropShadow_237_3848"/>
<feBlend mode="normal" in="SourceGraphic" in2="effect2_dropShadow_237_3848" result="shape"/>
</filter>
</defs>
</svg>
