<svg viewBox="0 0 160 130" fill="none" xmlns="http://www.w3.org/2000/svg">
<path d="M153.333 120.8L155.759 117.697L128.599 8.49668L128.127 6.6001H126.173L33.8272 6.6001H31.8728L31.4011 8.49668L4.24062 117.697L6.6667 120.8L153.333 120.8Z" stroke="#1E78FF" stroke-opacity="0.32" stroke-width="5" stroke-miterlimit="1.5" stroke-linecap="square" stroke-linejoin="round"/>
<path fill-rule="evenodd" clip-rule="evenodd" d="M153.108 118.445L125.989 8.66675L33.7854 8.66675L6.66666 118.445H153.108Z" fill="#1E78FF" fill-opacity="0.32"/>
<path fill-rule="evenodd" clip-rule="evenodd" d="M153.108 118.445L125.989 8.66675L33.7854 8.66675L6.66666 118.445H153.108Z" fill="#141414" fill-opacity="0.24"/>
<path fill-rule="evenodd" clip-rule="evenodd" d="M101.476 8.16675H125.989H126.381L126.474 8.54684L153.593 118.325L153.108 118.945H6.66667L6.18127 118.325L33.3 8.54684L33.3939 8.16675H33.7854H58.487L58.487 8.16663H58.9261H68.431H68.902H91.0604H91.5314H101.037H101.476L101.476 8.16675ZM69.373 9.16675H90.5894L90.8403 13.3666H69.1221L69.373 9.16675ZM68.3712 9.16675L68.0922 13.8368L68.0606 14.3666H68.5913H91.371H91.9018L91.8701 13.8368L91.5911 9.16675H100.598L102.463 23.4777H57.4999L59.3651 9.16675H68.3712ZM103.528 23.9131L101.606 9.16675H122.339C122.412 9.97112 122.9 10.6554 123.573 11.1331C124.29 11.642 125.249 11.9461 126.287 11.9587L136.769 54.3889H98.3594C98.1293 51.62 95.9996 49.218 92.8784 47.5052C89.5525 45.68 84.992 44.5667 79.9818 44.5667C74.9717 44.5667 70.4111 45.68 67.0853 47.5052C63.9641 49.218 61.8344 51.62 61.6042 54.3889H23.0055L33.4871 11.9591H33.609C34.6736 11.9591 35.6588 11.653 36.3909 11.1331C37.0635 10.6554 37.5514 9.97112 37.6248 9.16675H58.3566L56.4347 23.9131L56.9305 24.4777H70.9286L71.208 24.7783C73.1998 26.9216 76.4033 28.2876 79.9806 28.2876C82.1199 28.2876 84.1208 27.7995 85.8094 26.9526L85.8097 26.9524C86.9486 26.3803 87.9495 25.6432 88.7533 24.7783L89.0326 24.4777H103.032L103.528 23.9131ZM79.9806 27.2876C76.8708 27.2876 74.118 26.179 72.3177 24.4777H87.6435C86.9974 25.0883 86.2275 25.6234 85.3607 26.0589C83.8159 26.8337 81.9692 27.2876 79.9806 27.2876ZM92.3973 48.3818C95.3507 50.0026 97.1258 52.1287 97.3548 54.3889H81.4494C81.1869 54.001 80.6285 53.7333 79.982 53.7333C79.3355 53.7333 78.7771 54.001 78.5146 54.3889H62.6088C62.8379 52.1287 64.613 50.0026 67.5664 48.3818C70.7184 46.6521 75.107 45.5667 79.9818 45.5667C84.8567 45.5667 89.2453 46.6521 92.3973 48.3818ZM78.5148 55.3889H62.6088C62.8379 57.6491 64.613 59.7752 67.5664 61.3959C70.7184 63.1257 75.107 64.2111 79.9818 64.2111C84.8567 64.2111 89.2453 63.1257 92.3973 61.3959C95.3507 59.7752 97.1257 57.6491 97.3548 55.3889H81.4493C81.1868 55.7767 80.6284 56.0444 79.982 56.0444C79.3356 56.0444 78.7773 55.7767 78.5148 55.3889ZM67.0853 62.2726C63.9641 60.5597 61.8344 58.1578 61.6043 55.3889H22.7585L8.27689 114.011C10.7483 114.179 12.8817 115.775 12.9547 117.945H45.0969L48.0269 93.6844L48.08 93.2444H48.5233H66.0913C69.2406 89.8147 74.3056 87.6122 79.9822 87.6122C85.6589 87.6122 90.7239 89.8147 93.8732 93.2444H111.438H111.882L111.935 93.6844L114.865 117.945H146.738C146.812 115.751 148.991 114.144 151.496 114.006L137.016 55.3889H98.3594C98.1292 58.1578 95.9996 60.5597 92.8784 62.2726C89.5525 64.0977 84.992 65.2111 79.9818 65.2111C74.9717 65.2111 70.4111 64.0977 67.0853 62.2726ZM93.4317 94.2444L93.5081 94.3282L93.6001 94.2444H110.995L113.857 117.944H98.6194L98.1069 109.89L98.0771 109.422H97.6079H62.3536H61.8844L61.8546 109.89L61.3421 117.944H46.1042L48.9665 94.2444H66.3643L66.4564 94.3282L66.5328 94.2444H93.4317ZM92.471 93.2444C89.5028 90.4267 85.0195 88.6122 79.9822 88.6122C74.945 88.6122 70.4617 90.4267 67.4935 93.2444H92.471ZM126.038 10.948L125.598 9.16675H123.347C123.415 9.58113 123.686 9.98659 124.152 10.3178C124.63 10.6572 125.288 10.8951 126.038 10.948ZM34.1769 9.16675H36.617C36.5484 9.58113 36.2782 9.98659 35.8118 10.3178C35.2936 10.6859 34.5639 10.9345 33.7345 10.9574L34.1769 9.16675ZM147.739 117.945C147.819 116.433 149.458 115.039 151.741 114.998L152.469 117.945H147.739ZM8.03272 115L7.30522 117.945H11.9536C11.8749 116.451 10.2731 115.072 8.03272 115ZM97.1387 110.422L97.6173 117.944H62.3442L62.8228 110.422H97.1387ZM79.9819 20.9925C79.3828 20.9925 78.8972 20.6476 78.8972 20.2222C78.8972 19.7967 79.3828 19.4518 79.9819 19.4518C80.581 19.4518 81.0667 19.7967 81.0667 20.2222C81.0667 20.6476 80.581 20.9925 79.9819 20.9925ZM78.6259 99.8592C78.6259 100.391 79.233 100.822 79.9818 100.822C80.7307 100.822 81.3378 100.391 81.3378 99.8592C81.3378 99.3274 80.7307 98.8962 79.9818 98.8962C79.233 98.8962 78.6259 99.3274 78.6259 99.8592Z" fill="white"/>
</svg>
