<svg
        viewBox="0 0 335 120"
        fill="none"
        xmlns="http://www.w3.org/2000/svg"
      >
        <g>
          <path
            d="M62 120C62 101.569 66.8517 83.462 76.0674 67.5C85.283 51.538 98.538 38.283 114.5 29.0673L155.45 99.9948C151.938 102.022 149.022 104.938 146.995 108.45C144.967 111.962 143.9 115.945 143.9 120L62 120Z"
            fill="#FFDBDB"
          />
          <path
            d="M107 16.0769C125.242 5.54476 145.936 2.92655e-06 167 4.76806e-06C188.064 6.60956e-06 208.758 5.54476 227 16.077L180.2 97.1369C176.187 94.8198 171.634 93.6 167 93.6C162.366 93.6 157.813 94.8198 153.8 97.1369L107 16.0769Z"
            fill="#F67878"
          />
          <path
            d="M219.5 29.0673C235.462 38.2829 248.717 51.5379 257.933 67.4999C267.148 83.462 272 101.569 272 120L190.1 120C190.1 115.945 189.033 111.962 187.005 108.45C184.978 104.938 182.062 102.022 178.55 99.9947L219.5 29.0673Z"
            fill="#FFDBDB"
          />
          <path
            d="M114.5 29.0673C130.462 19.8516 148.569 14.9999 167 14.9999C185.431 14.9999 203.538 19.8516 219.5 29.0673L178.55 99.9948C175.038 97.9673 171.055 96.8999 167 96.8999C162.945 96.8999 158.962 97.9673 155.45 99.9948L114.5 29.0673Z"
            fill="#F00E0E"
          />
        </g>
      </svg>