<svg width="78" height="66" viewBox="0 0 78 66" fill="none" xmlns="http://www.w3.org/2000/svg">
<g filter="url(#filter0_dd_341_9426)">
<mask id="path-1-outside-1_341_9426" maskUnits="userSpaceOnUse" x="15.7812" y="12" width="46" height="34" fill="black">
<rect fill="white" x="15.7812" y="12" width="46" height="34"/>
<path fill-rule="evenodd" clip-rule="evenodd" d="M56.524 30.857C58.2003 30.1864 58.2003 27.8136 56.524 27.143L44.0538 22.1549C41.7611 18.4603 37.6677 16 32.9997 16C25.82 16 19.9997 21.8203 19.9997 29C19.9997 36.1797 25.82 42 32.9997 42C37.6677 42 41.7611 39.5397 44.0538 35.8451L56.524 30.857Z"/>
</mask>
<path fill-rule="evenodd" clip-rule="evenodd" d="M56.524 30.857C58.2003 30.1864 58.2003 27.8136 56.524 27.143L44.0538 22.1549C41.7611 18.4603 37.6677 16 32.9997 16C25.82 16 19.9997 21.8203 19.9997 29C19.9997 36.1797 25.82 42 32.9997 42C37.6677 42 41.7611 39.5397 44.0538 35.8451L56.524 30.857Z" fill="#4F4F54"/>
<path d="M56.524 27.143L55.0385 30.857L55.0385 30.857L56.524 27.143ZM56.524 30.857L58.0096 34.5709L58.0096 34.5709L56.524 30.857ZM44.0538 22.1549L40.655 24.2641L41.348 25.3808L42.5682 25.8689L44.0538 22.1549ZM44.0538 35.8451L42.5682 32.1311L41.348 32.6192L40.655 33.7359L44.0538 35.8451ZM55.0385 30.857C53.3622 30.1864 53.3622 27.8136 55.0385 27.143L58.0096 34.5709C63.0385 32.5593 63.0385 25.4407 58.0096 23.4291L55.0385 30.857ZM42.5682 25.8689L55.0385 30.857L58.0096 23.4291L45.5393 18.441L42.5682 25.8689ZM32.9997 20C36.2269 20 39.0613 21.6958 40.655 24.2641L47.4526 20.0458C44.4609 15.2248 39.1085 12 32.9997 12L32.9997 20ZM23.9997 29C23.9997 24.0294 28.0292 20 32.9997 20L32.9997 12C23.6109 12 15.9997 19.6112 15.9997 29L23.9997 29ZM32.9997 38C28.0292 38 23.9997 33.9706 23.9997 29L15.9997 29C15.9997 38.3888 23.6109 46 32.9997 46L32.9997 38ZM40.655 33.7359C39.0613 36.3042 36.2269 38 32.9997 38L32.9997 46C39.1085 46 44.4609 42.7752 47.4526 37.9542L40.655 33.7359ZM55.0385 27.143L42.5682 32.1311L45.5393 39.559L58.0096 34.5709L55.0385 27.143Z" fill="white" mask="url(#path-1-outside-1_341_9426)"/>
</g>
<defs>
<filter id="filter0_dd_341_9426" x="0" y="0" width="77.7812" height="66" filterUnits="userSpaceOnUse" color-interpolation-filters="sRGB">
<feFlood flood-opacity="0" result="BackgroundImageFix"/>
<feColorMatrix in="SourceAlpha" type="matrix" values="0 0 0 0 0 0 0 0 0 0 0 0 0 0 0 0 0 0 127 0" result="hardAlpha"/>
<feOffset dy="4"/>
<feGaussianBlur stdDeviation="8"/>
<feComposite in2="hardAlpha" operator="out"/>
<feColorMatrix type="matrix" values="0 0 0 0 0.0745098 0 0 0 0 0.0745098 0 0 0 0 0.0784314 0 0 0 0.08 0"/>
<feBlend mode="normal" in2="BackgroundImageFix" result="effect1_dropShadow_341_9426"/>
<feColorMatrix in="SourceAlpha" type="matrix" values="0 0 0 0 0 0 0 0 0 0 0 0 0 0 0 0 0 0 127 0" result="hardAlpha"/>
<feOffset dy="1"/>
<feGaussianBlur stdDeviation="2"/>
<feComposite in2="hardAlpha" operator="out"/>
<feColorMatrix type="matrix" values="0 0 0 0 0.0745098 0 0 0 0 0.0745098 0 0 0 0 0.0784314 0 0 0 0.08 0"/>
<feBlend mode="normal" in2="effect1_dropShadow_341_9426" result="effect2_dropShadow_341_9426"/>
<feBlend mode="normal" in="SourceGraphic" in2="effect2_dropShadow_341_9426" result="shape"/>
1_9368" result="shape"/>
1_9368" result="shape"/>
1_9368" result="shape"/>
</filter>
</defs>
</svg>
