<svg width="75" height="65" viewBox="0 0 75 65" fill="none" xmlns="http://www.w3.org/2000/svg">
<g filter="url(#filter0_dd_341_9368)">
<mask id="path-1-outside-1_341_9368" maskUnits="userSpaceOnUse" x="15.5844" y="11.3261" width="44.6158" height="34.2066" fill="black">
<rect fill="white" x="15.5844" y="11.3261" width="44.6158" height="34.2066"/>
<path fill-rule="evenodd" clip-rule="evenodd" d="M21.769 25.7249C20.0599 26.3068 19.9357 28.6764 21.5746 29.4337L32.4797 34.4729C34.4147 37.9894 38.0691 40.4551 42.3721 40.6806C48.9904 41.0275 54.6368 35.9435 54.9837 29.3251C55.3306 22.7068 50.2465 17.0604 43.6282 16.7135C39.3252 16.488 35.433 18.5582 33.1411 21.8532L21.769 25.7249Z"/>
</mask>
<path fill-rule="evenodd" clip-rule="evenodd" d="M21.769 25.7249C20.0599 26.3068 19.9357 28.6764 21.5746 29.4337L32.4797 34.4729C34.4147 37.9894 38.0691 40.4551 42.3721 40.6806C48.9904 41.0275 54.6368 35.9435 54.9837 29.3251C55.3306 22.7068 50.2465 17.0604 43.6282 16.7135C39.3252 16.488 35.433 18.5582 33.1411 21.8532L21.769 25.7249Z" fill="#4F4F54"/>
<path d="M21.5746 29.4337L19.8967 33.0648L19.8967 33.0648L21.5746 29.4337ZM21.769 25.7249L20.4798 21.9383L20.4798 21.9383L21.769 25.7249ZM32.4797 34.4729L35.9842 32.5446L35.3506 31.3931L34.1576 30.8418L32.4797 34.4729ZM33.1411 21.8532L34.4302 25.6398L35.6744 25.2162L36.4248 24.1373L33.1411 21.8532ZM23.2525 25.8027C24.8914 26.56 24.7672 28.9296 23.0581 29.5115L20.4798 21.9383C15.3526 23.6839 14.98 30.7928 19.8967 33.0648L23.2525 25.8027ZM34.1576 30.8418L23.2525 25.8027L19.8967 33.0648L30.8018 38.104L34.1576 30.8418ZM42.5815 36.6861C39.7173 36.536 37.2801 34.8996 35.9842 32.5446L28.9752 36.4013C31.5493 41.0792 36.4209 44.3742 42.1628 44.6752L42.5815 36.6861ZM50.9892 29.1158C50.7579 33.528 46.9937 36.9174 42.5815 36.6861L42.1628 44.6752C50.9872 45.1376 58.5157 38.3589 58.9782 29.5345L50.9892 29.1158ZM43.4188 20.708C47.8311 20.9393 51.2204 24.7035 50.9892 29.1158L58.9782 29.5345C59.4407 20.71 52.662 13.1815 43.8375 12.719L43.4188 20.708ZM36.4248 24.1373C37.9598 21.9306 40.5547 20.5579 43.4188 20.708L43.8375 12.719C38.0957 12.4181 32.9063 15.1858 29.8574 19.5691L36.4248 24.1373ZM23.0581 29.5115L34.4302 25.6398L31.8519 18.0666L20.4798 21.9383L23.0581 29.5115Z" fill="white" mask="url(#path-1-outside-1_341_9368)"/>
</g>
<defs>
<filter id="filter0_dd_341_9368" x="0.413269" y="0.696655" width="74.5873" height="64.0009" filterUnits="userSpaceOnUse" color-interpolation-filters="sRGB">
<feFlood flood-opacity="0" result="BackgroundImageFix"/>
<feColorMatrix in="SourceAlpha" type="matrix" values="0 0 0 0 0 0 0 0 0 0 0 0 0 0 0 0 0 0 127 0" result="hardAlpha"/>
<feOffset dy="4"/>
<feGaussianBlur stdDeviation="8"/>
<feComposite in2="hardAlpha" operator="out"/>
<feColorMatrix type="matrix" values="0 0 0 0 0.0745098 0 0 0 0 0.0745098 0 0 0 0 0.0784314 0 0 0 0.08 0"/>
<feBlend mode="normal" in2="BackgroundImageFix" result="effect1_dropShadow_341_9368"/>
<feColorMatrix in="SourceAlpha" type="matrix" values="0 0 0 0 0 0 0 0 0 0 0 0 0 0 0 0 0 0 127 0" result="hardAlpha"/>
<feOffset dy="1"/>
<feGaussianBlur stdDeviation="2"/>
<feComposite in2="hardAlpha" operator="out"/>
<feColorMatrix type="matrix" values="0 0 0 0 0.0745098 0 0 0 0 0.0745098 0 0 0 0 0.0784314 0 0 0 0.08 0"/>
<feBlend mode="normal" in2="effect1_dropShadow_341_9368" result="effect2_dropShadow_341_9368"/>
<feBlend mode="normal" in="SourceGraphic" in2="effect2_dropShadow_341_9368" result="shape"/>
</filter>
</defs>
</svg>
